<svg xmlns="http://www.w3.org/2000/svg" xmlns:xlink="http://www.w3.org/1999/xlink" viewBox="0 0 216 62.4"><defs><style>.a{fill:none;}.b{clip-path:url(#a);}.c{fill:#fff;}</style><clipPath id="a" transform="translate(-0.8 -77.6)"><rect class="a" y="77" width="217" height="63.8"/></clipPath></defs><title>Android-App-Store-Icon</title><g class="b"><path d="M209.4,140H8.2a7.38,7.38,0,0,1-7.4-7.4V85a7.38,7.38,0,0,1,7.4-7.4H209.4a7.38,7.38,0,0,1,7.4,7.4v47.7a7.36,7.36,0,0,1-7.4,7.3" transform="translate(-0.8 -77.6)"/></g><path class="c" d="M172.2,125.1h3V105h-3Zm27-12.9-3.4,8.7h-.1l-3.6-8.7h-3.2l5.4,12.2-3.1,6.8h3.1l8.3-19Zm-17,10.6c-1,0-2.4-.5-2.4-1.7,0-1.6,1.7-2.1,3.2-2.1a5.1,5.1,0,0,1,2.7.7,3.55,3.55,0,0,1-3.5,3.1m.4-11a5.8,5.8,0,0,0-5.4,3.1l2.7,1.1a2.86,2.86,0,0,1,2.7-1.5,2.93,2.93,0,0,1,3.2,2.6v.2a6.5,6.5,0,0,0-3.1-.8c-2.9,0-5.8,1.6-5.8,4.5,0,2.7,2.4,4.4,5,4.4a4.15,4.15,0,0,0,3.8-2h.1V125h2.9v-7.7c0-3.5-2.7-5.5-6.1-5.5M164,114.7h-4.3v-6.9H164a3.52,3.52,0,0,1,3.5,3.4,3.47,3.47,0,0,1-3.5,3.5m-.1-9.7h-7.2v20.1h3v-7.6h4.2a6.26,6.26,0,1,0,0-12.5m-39.2,17.8a3.87,3.87,0,0,1-3.8-4.1,3.77,3.77,0,1,1,7.5,0,3.8,3.8,0,0,1-3.7,4.1m3.5-9.5h-.1a4.83,4.83,0,0,0-3.6-1.5,6.86,6.86,0,0,0-6.6,6.9,6.77,6.77,0,0,0,6.6,6.8,4.55,4.55,0,0,0,3.6-1.6h.1v1c0,2.6-1.4,4-3.7,4a3.68,3.68,0,0,1-3.4-2.4l-2.6,1.1a6.53,6.53,0,0,0,6.1,4c3.5,0,6.5-2.1,6.5-7.1V112.2h-2.9v1.1Zm4.9,11.8h3V105h-3Zm7.4-6.7a3.75,3.75,0,0,1,3.6-4,2.6,2.6,0,0,1,2.5,1.4Zm9.4-2.2c-.6-1.5-2.3-4.4-5.9-4.4a6.48,6.48,0,0,0-6.4,6.8,6.68,6.68,0,0,0,6.8,6.8,7,7,0,0,0,5.7-3l-2.3-1.6a4,4,0,0,1-3.4,1.9,3.38,3.38,0,0,1-3.3-2.1l9.1-3.8ZM77,113.9v2.9h6.9a6.66,6.66,0,0,1-1.6,3.7,7.17,7.17,0,0,1-5.4,2.1,7.7,7.7,0,0,1,0-15.4,7.13,7.13,0,0,1,5.2,2.1l2-2.1a9.82,9.82,0,0,0-7.3-2.9,10.6,10.6,0,1,0,0,21.2,9.5,9.5,0,0,0,7.4-3,9.61,9.61,0,0,0,2.5-6.8,9,9,0,0,0-.2-1.8Zm17.8,8.9a4,4,0,0,1-3.9-4.1,3.89,3.89,0,0,1,3.9-4.1,4.11,4.11,0,0,1,0,8.2m0-11a6.8,6.8,0,1,0,6.9,6.8,6.77,6.77,0,0,0-6.9-6.8m15,11a4,4,0,0,1-3.9-4.1,3.89,3.89,0,0,1,3.9-4.1,4,4,0,0,1,3.9,4.1,4.08,4.08,0,0,1-3.9,4.1m0-11a6.8,6.8,0,1,0,6.9,6.8,6.77,6.77,0,0,0-6.9-6.8" transform="translate(-0.8 -77.6)"/><path class="c" d="M51.6,106.7l-7.9-4.5L20.3,88.9a3.29,3.29,0,0,0-1.8-.5h-.4a.37.37,0,0,0-.3.1h-.1c-.1,0-.2.1-.3.2h0c-.1.1-.2.1-.3.2H17a3.17,3.17,0,0,0-.7,2.3v35.5A3.7,3.7,0,0,0,17,129l.1.1h0c.7.7,1.9.7,3.2,0l23.3-13.3h0l.1-.1,7.9-4.5C53.9,110,53.9,108,51.6,106.7Z" transform="translate(-0.8 -77.6)"/><path class="c" d="M73.9,90.1a3.64,3.64,0,0,0-2.3-.9,3.6,3.6,0,0,0,0,7.2,2.75,2.75,0,0,0,3-2.6H72V92.7h4.1c0,3.3-1.8,4.9-4.5,4.9a4.85,4.85,0,0,1,0-9.7,4.45,4.45,0,0,1,3.2,1.3" transform="translate(-0.8 -77.6)"/><path class="c" d="M83.5,88.1v1.2H79.2v3H83v1.2H79.2v2.9h4.5v1.2H78V88.1" transform="translate(-0.8 -77.6)"/><path class="c" d="M91.8,88.1v1.2H88.9v8.3H87.6V89.3H84.7V88.1" transform="translate(-0.8 -77.6)"/><path class="c" d="M96.6,97.6h1.3V88.1H96.6Z" transform="translate(-0.8 -77.6)"/><path class="c" d="M106.6,88.1v1.2h-2.9v8.3h-1.3V89.3H99.5V88.1" transform="translate(-0.8 -77.6)"/><path class="c" d="M115.6,96.5a3.6,3.6,0,1,0-3.5-3.6,3.5,3.5,0,0,0,3.5,3.6m0-8.5a4.82,4.82,0,0,1,4.8,4.9,4.74,4.74,0,0,1-4.8,4.8,4.85,4.85,0,0,1,0-9.7" transform="translate(-0.8 -77.6)"/><path class="c" d="M128,97.6l-4.3-7.1v7.1h-1.3V88.1h1.3l4.3,7.1V88.1h1.3v9.5" transform="translate(-0.8 -77.6)"/></svg>