<?xml version="1.0" encoding="UTF-8"?>
<!DOCTYPE svg PUBLIC "-//W3C//DTD SVG 1.1//EN" "http://www.w3.org/Graphics/SVG/1.1/DTD/svg11.dtd">
<!-- Creator: CorelDRAW 2019 (64-Bit) -->
<svg xmlns="http://www.w3.org/2000/svg" xml:space="preserve" width="2033px" height="2042px" version="1.1" style="shape-rendering:geometricPrecision; text-rendering:geometricPrecision; image-rendering:optimizeQuality; fill-rule:evenodd; clip-rule:evenodd"
viewBox="0 0 2034.54 2043.64"
 xmlns:xlink="http://www.w3.org/1999/xlink">
 <defs>
  <style type="text/css">
   <![CDATA[
    .str0 {stroke:#BC1F30;stroke-width:18.48;stroke-miterlimit:2.61313}
    .fil1 {fill:#1A1515;fill-rule:nonzero}
    .fil0 {fill:#BC1F30;fill-rule:nonzero}
   ]]>
  </style>
 </defs>
 <g id="Layer_x0020_1">
  <metadata id="CorelCorpID_0Corel-Layer"/>
  <g id="logo-logo">
   <g paint-order="stroke">
    <g>
     <g paint-order="stroke">
      <g>
       <path class="fil0" d="M1490.52 1112.83c0,42.89 -34.78,77.67 -77.67,77.67 -42.89,0 -77.67,-34.78 -77.67,-77.67 0,-42.89 34.78,-77.67 77.67,-77.67 42.89,0 77.67,34.78 77.67,77.67z" paint-order="stroke"/>
      </g>
     </g>
    </g>
    <g>
     <g paint-order="stroke">
      <g>
       <path class="fil0" d="M693.75 1111.09c0,42.25 -34.26,76.51 -76.51,76.51 -42.25,0 -76.52,-34.26 -76.52,-76.51 0,-42.26 34.27,-76.52 76.52,-76.52 42.25,0 76.51,34.26 76.51,76.52l0 0z" paint-order="stroke"/>
      </g>
     </g>
    </g>
    <g>
     <path class="fil1" d="M1407.7 1416.19c-167.94,0 -304.08,-136.14 -304.08,-304.08 0,-167.95 136.14,-304.08 304.08,-304.08 167.93,0 304.08,136.13 304.08,304.08 0,167.94 -136.15,304.08 -304.08,304.08zm-789.45 0c-167.93,0 -304.08,-136.14 -304.08,-304.08 0,-167.95 136.15,-304.08 304.08,-304.08 167.94,0 304.08,136.13 304.08,304.08 0,167.94 -136.14,304.08 -304.08,304.08zm1130.46 -602.32l-125.25 0c-46.07,-33.52 -100,-56.83 -158.58,-65.78 -70.39,-10.79 -137.53,-1.18 -197,23.25l-0.93 0c-57.61,25.76 -149.76,42.53 -253.98,42.53 -104.19,0 -196.35,-16.77 -253.97,-42.53l-0.93 0c-59.47,-24.43 -144.15,-34.04 -214.56,-23.25 -58.56,8.95 -112.49,32.26 -158.56,65.78l-107.71 0c-28.25,0 -51.35,23.11 -51.35,51.36l0 105.67c0,22.8 15.15,42.02 35.8,48.68 -4.68,18.04 -8.18,36.52 -10.03,55.45 -22.38,229.15 165.36,420.62 393.33,404.53 158,-11.15 292.93,-125.49 330.84,-279.27 14.21,-57.7 13.76,-113.23 2.59,-164.82 -4.74,-21.99 12.08,-42.66 34.55,-42.66 22.49,0 39.3,20.67 34.55,42.66 -11.16,51.59 -11.61,107.12 2.6,164.82 37.91,153.78 172.86,268.12 330.83,279.27 227.98,16.09 415.72,-175.38 393.33,-404.53 -1.84,-18.93 -5.34,-37.41 -10.02,-55.45 20.65,-6.66 35.8,-25.88 35.8,-48.68l0 -105.67c0,-28.25 -23.1,-51.36 -51.35,-51.36z" paint-order="stroke"/>
    </g>
    <g>
     <path class="fil1" d="M1880.42 373.97c0,0 136.57,-58.62 76.3,-304.21 0,0 -244.94,201.74 -1015.11,-35.1 -678.93,-208.78 -1026.03,576.88 -924.07,989.31 8.32,33.68 38.83,57.13 73.52,57.13l0 0c45.12,0 80.37,-39.15 75.21,-83.98 -15.09,-131.06 -9.28,-386.53 220.67,-553.66 165.69,-120.43 301.3,217.34 737.17,124.55 645.99,-137.54 744.02,286.61 758.05,450.93 3.02,35.28 32.95,62.16 68.35,62.16 34.47,0 63.55,-25.47 68.06,-59.65 20.31,-153.96 53.91,-558.85 -138.15,-647.48z" paint-order="stroke"/>
    </g>
    <g>
     <path class="fil0" d="M630.35 1008.82c-4.13,9.96 -10.37,18.33 -17.83,25.17l56.9 137.4c10.13,-0.44 20.47,1.06 30.44,5.19 36.54,15.13 53.95,57.17 38.81,93.7 -15.13,36.53 -57.16,53.96 -93.7,38.82 -36.54,-15.14 -53.95,-57.18 -38.83,-93.71 4.13,-9.97 10.39,-18.35 17.87,-25.2l-56.92 -137.37c-10.12,0.44 -20.47,-1.07 -30.44,-5.2 -36.53,-15.12 -53.94,-57.16 -38.8,-93.69 15.12,-36.54 57.16,-53.95 93.69,-38.82 36.54,15.14 53.95,57.16 38.81,93.71l0 0zm184.91 76.59c-15.14,36.53 -57.17,53.93 -93.72,38.8 -9.96,-4.13 -18.34,-10.38 -25.19,-17.85l-12.51 5.19 -18.8 -45.41 12.5 -5.19c-0.45,-10.12 1.06,-20.47 5.19,-30.45 15.14,-36.52 57.16,-53.93 93.7,-38.8 36.56,15.14 53.97,57.16 38.83,93.71l0 0zm-394 53.4c15.14,-36.53 57.16,-53.95 93.7,-38.82 9.97,4.14 18.35,10.39 25.19,17.87l12.52 -5.19 18.83 45.42 -12.53 5.19c0.44,10.12 -1.07,20.45 -5.2,30.41 -15.13,36.55 -57.16,53.96 -93.69,38.82 -36.55,-15.13 -53.95,-57.18 -38.82,-93.7zm-59.98 -133.15c-58.79,141.92 8.61,304.63 150.53,363.42 141.93,58.79 304.64,-8.61 363.42,-150.53 58.79,-141.93 -8.6,-304.64 -150.53,-363.43 -141.93,-58.78 -304.64,8.61 -363.42,150.54z" paint-order="stroke"/>
    </g>
    <g>
     <g>
      <path class="fil1" d="M545.64 982.22c-2.52,6.06 -2.52,12.74 0.01,18.8l21.45 51.8 56.92 137.37 21.44 51.8c5.19,12.51 19.6,18.48 32.12,13.29 12.14,-5.01 18.33,-19.96 13.29,-32.1l-21.45 -51.79 -56.9 -137.4 -21.45 -51.77c-5.2,-12.53 -19.59,-18.48 -32.13,-13.3 -6.07,2.51 -10.79,7.23 -13.31,13.3l0.01 0zm0 0l0 0 0 0z" paint-order="stroke"/>
     </g>
    </g>
    <g>
     <g>
      <path class="fil1" d="M677.54 1060.95l-12.5 5.19 18.8 45.41 12.51 -5.19 51.8 -21.45c12.14,-5.01 18.33,-19.97 13.29,-32.1 -5.17,-12.52 -19.59,-18.49 -32.1,-13.31l-51.8 21.45 0 0zm0 0l0 0 0 0z" paint-order="stroke"/>
     </g>
    </g>
    <g id="_2795168432352">
     <g>
      <path class="fil1" d="M558.97 1163.28l12.53 -5.19 -18.83 -45.42 -12.52 5.19 -51.78 21.44c-6.07,2.5 -10.79,7.24 -13.29,13.3 -2.53,6.06 -2.53,12.75 0,18.81 5.19,12.52 19.59,18.49 32.12,13.3l51.77 -21.44 0 0.01zm0 0l0 0 0 0z" paint-order="stroke"/>
     </g>
    </g>
    <g>
     <path class="fil0" d="M1489.28 1047.62c-9.96,4.13 -20.29,5.64 -30.41,5.2l-56.91 137.39c7.46,6.84 13.72,15.22 17.85,25.18 15.14,36.55 -2.29,78.59 -38.82,93.72 -36.52,15.13 -78.56,-2.29 -93.7,-38.83 -15.13,-36.54 2.27,-78.57 38.82,-93.7 9.96,-4.13 20.31,-5.64 30.44,-5.2l56.89 -137.37c-7.47,-6.85 -13.73,-15.23 -17.85,-25.21 -15.13,-36.53 2.28,-78.56 38.81,-93.69 36.54,-15.13 78.56,2.28 93.7,38.81 15.14,36.54 -2.27,78.56 -38.82,93.7zm76.61 184.9c-36.55,15.14 -78.57,-2.27 -93.71,-38.81 -4.13,-9.98 -5.64,-20.32 -5.2,-30.44l-12.51 -5.18 18.82 -45.41 12.49 5.18c6.85,-7.48 15.23,-13.73 25.21,-17.87 36.52,-15.13 78.56,2.28 93.7,38.82 15.13,36.56 -2.27,78.58 -38.8,93.71l0 0zm-316.37 -240.83c36.53,-15.14 78.56,2.29 93.7,38.81 4.13,9.97 5.63,20.32 5.19,30.45l12.51 5.19 -18.81 45.42 -12.51 -5.2c-6.85,7.47 -15.23,13.72 -25.19,17.85 -36.53,15.12 -78.57,-2.29 -93.71,-38.82 -15.13,-36.53 2.28,-78.56 38.82,-93.7l0 0zm51.73 -136.57c-141.92,58.79 -209.32,221.5 -150.53,363.42 58.78,141.93 221.5,209.33 363.42,150.54 141.93,-58.79 209.32,-221.5 150.53,-363.42 -58.78,-141.93 -221.49,-209.32 -363.42,-150.54z" paint-order="stroke"/>
    </g>
    <g>
     <g>
      <path class="fil1" d="M1448.2 968.91c-6.07,2.51 -10.79,7.24 -13.31,13.31l-21.45 51.79 -56.89 137.37 -21.46 51.81c-5.17,12.52 0.79,26.92 13.31,32.11 12.12,5.04 27.08,-1.17 32.1,-13.29l21.46 -51.8 56.9 -137.39 21.45 -51.77c5.18,-12.54 -0.77,-26.93 -13.3,-32.13 -6.07,-2.51 -12.75,-2.51 -18.82,-0.01l0.01 0zm0 0l0 0 0 0z" paint-order="stroke"/>
     </g>
    </g>
    <g>
     <g>
      <path class="fil1" d="M1485.78 1117.86l-12.49 -5.18 -18.82 45.41 12.51 5.18 51.8 21.45c12.13,5.05 27.09,-1.16 32.1,-13.3 5.18,-12.5 -0.79,-26.91 -13.3,-32.1l-51.8 -21.46 0 0zm0 0l0 0 0 0z" paint-order="stroke"/>
     </g>
    </g>
    <g>
     <g>
      <path class="fil1" d="M1329.6 1106.36l12.51 5.2 18.81 -45.42 -12.51 -5.19 -51.79 -21.46c-6.07,-2.51 -12.74,-2.51 -18.79,0.01 -6.09,2.5 -10.81,7.22 -13.31,13.29 -5.19,12.53 0.78,26.93 13.31,32.12l51.77 21.44 0 0.01zm0 0l0 0 0 0z" paint-order="stroke"/>
     </g>
    </g>
   </g>
  </g>
  <g id="text-logo-path">
   <path class="fil0 str0" d="M286.36 1800.83l-0.86 0c-3.86,0 -8.01,-0.29 -12.44,-0.86 -4.44,-0.58 -8.73,-1.3 -12.88,-2.16 -4.15,-0.82 -7.97,-1.79 -11.46,-2.9 -3.49,-1.06 -6.23,-2.17 -8.2,-3.32l0 0c-3.65,-2.14 -6.55,-5.24 -8.68,-9.31 -2.14,-4.06 -3.21,-8.03 -3.21,-11.89l0 0c0,-3.65 0.89,-6.51 2.65,-8.56 1.73,-2.02 3.68,-3.02 5.86,-3.02l0 0c1.68,0 5.54,2.44 11.58,7.33l0 0c5.59,4.81 11.21,8.38 16.88,10.72 5.71,2.3 12.82,3.45 21.32,3.45l0 0c8.67,0 15.61,-2.22 20.82,-6.65 5.26,-4.44 7.89,-10.81 7.89,-19.1l0 0c0,-4.07 -0.74,-7.56 -2.22,-10.48 -1.48,-2.91 -3.84,-5.62 -7.08,-8.13 -3.25,-2.46 -7.44,-5.05 -12.57,-7.76 -5.14,-2.67 -11.48,-5.75 -19.04,-9.25l0 0c-5.92,-2.91 -11.5,-5.89 -16.76,-8.93 -5.22,-3 -9.8,-6.45 -13.74,-10.35 -3.98,-3.94 -7.08,-8.57 -9.3,-13.86 -2.22,-5.34 -3.33,-11.69 -3.33,-19.04l0 0c0,-13.11 5.22,-23.77 15.65,-31.98 10.43,-8.17 25.59,-12.26 45.47,-12.26l0 0c12.16,0 22.28,1.74 30.38,5.24l0 0c3.86,1.68 7.04,4.49 9.55,8.44 2.5,3.98 3.75,7.62 3.75,10.9l0 0c0,8.09 -2.69,12.14 -8.07,12.14l0 0c-1.31,0 -6.3,-2.92 -14.97,-8.75l0 0c-8.87,-5.75 -17.68,-8.63 -26.43,-8.63l0 0c-8.67,0 -15.71,2.04 -21.13,6.1 -5.43,4.03 -8.14,9.72 -8.14,17.07l0 0c0,3.7 0.64,6.88 1.91,9.55 1.28,2.71 3.39,5.32 6.35,7.83 2.96,2.46 7,5.07 12.14,7.82 5.13,2.71 11.58,5.77 19.34,9.18l0 0c6.21,2.75 12.04,5.67 17.5,8.75 5.46,3.12 10.33,6.72 14.6,10.78 4.23,4.03 7.62,8.79 10.17,14.3 2.55,5.46 3.82,11.95 3.82,19.47l0 0c0,3.49 -0.41,6.84 -1.23,10.04 -0.78,3.21 -1.83,6.37 -3.14,9.49l0 0c-4.81,9.82 -12.2,17.03 -22.19,21.63 -9.94,4.64 -20.12,6.96 -30.56,6.96l0 0zm282.5 -161.92l0 0c0,7.72 -2.4,11.58 -7.21,11.58l0 0c-2.17,0 -5.66,-0.66 -10.47,-1.97l0 0c-4.81,-1.31 -9.86,-1.97 -15.16,-1.97l0 0c-11.21,0 -17.76,4.15 -19.65,12.44l0 0c-1.48,7.36 -2.22,27.89 -2.22,61.62l0 0 -0.55 24.33 0 12.45c0,5.01 0.33,8.73 0.98,11.15 0.66,2.47 1.64,5.49 2.96,9.06l0 0c1.11,3.49 1.72,6.33 1.85,8.5l0 0c0,4.23 -1.81,7.46 -5.42,9.68 -3.58,2.21 -8.47,3.32 -14.67,3.32l0 0 -3.14 0c-4.44,0 -8.44,-1.11 -12.02,-3.32 -3.57,-2.22 -5.36,-4.97 -5.36,-8.26l0 0c0,-3.7 0.48,-6.68 1.42,-8.93l0 0 1.97 -4.93c0.74,-1.32 1.73,-4.05 2.96,-8.2l0 0c0.95,-3.86 1.42,-10.51 1.42,-19.96l0 0 0 -3.39c0.2,-1.31 0.31,-2.5 0.31,-3.57 0,-1.11 0,-2.36 0,-3.76l0 0 0 -6.96 0.55 -27.98c0,-23.2 -0.76,-37.62 -2.28,-43.25l0 0c-1.68,-6.61 -6.82,-9.88 -15.4,-9.8l0 0c-4.81,0 -10.6,1.13 -17.38,3.39l0 0c-6.98,2.18 -11.13,3.27 -12.44,3.27l0 0c-4.07,0 -6.1,-4.23 -6.1,-12.69l0 0c0,-8.51 3.67,-13.27 11.03,-14.3l0 0c9.81,-1.68 33.66,-2.52 71.53,-2.52l0 0 34.5 0c6.62,0 11.26,1.23 13.93,3.69 2.71,2.51 4.06,6.27 4.06,11.28zm188.36 -5.79l0 0c3.65,-5.38 10,-8.08 19.04,-8.08l0 0c9.07,0 13.61,2.22 13.61,6.66l0 0c0,2.71 -2.4,7.47 -7.21,14.29l0 0c-4.8,6.78 -9.79,15.53 -14.97,26.25l0 0c-7.93,16.23 -14.19,28.9 -18.79,38.02 -4.56,9.07 -7.95,16.65 -10.17,22.73 -2.22,6.08 -3.55,11.67 -4,16.76 -0.49,5.09 -0.74,11.69 -0.74,19.78l0 0c0,2.75 0.57,6.16 1.72,10.23l0 0c1.11,4.02 1.73,6.69 1.85,8.01l0 0c0,8.5 -6.36,12.75 -19.1,12.75l0 0c-11.79,0 -17.68,-4.44 -17.68,-13.31l0 0c0,-1.11 0.76,-3.98 2.28,-8.62l0 0c0.74,-2.18 1.46,-4.13 2.16,-5.86 0.73,-1.72 1.33,-3.69 1.78,-5.91 0.45,-2.22 0.82,-4.87 1.11,-7.95 0.29,-3.04 0.43,-6.92 0.43,-11.65l0 0c0,-4.64 -0.29,-8.58 -0.86,-11.83 -0.53,-3.24 -1.62,-6.83 -3.27,-10.78 -1.68,-3.98 -4.12,-8.87 -7.33,-14.66 -3.2,-5.79 -7.39,-13.45 -12.57,-22.98l0 0c-5.01,-9.62 -9.16,-17.23 -12.44,-22.86 -3.29,-5.59 -5.51,-9.14 -6.66,-10.66l0 0c-7.88,-10.27 -11.83,-16.64 -11.83,-19.1l0 0c0,-4.23 5.36,-6.35 16.08,-6.35l0 0c10.64,0 17.71,2.69 21.2,8.07l0 0c0.78,1.52 1.54,4.21 2.28,8.08l0 0c0.57,2.34 2.28,6.65 5.11,12.93 2.84,6.25 5.98,12.74 9.43,19.47 3.49,6.78 6.78,12.78 9.86,17.99 3.08,5.22 4.99,7.83 5.73,7.83l0 0c3.49,0 11.13,-12.06 22.92,-36.17l0 0c3.65,-7.35 6.14,-14.29 7.45,-20.82l0 0c1.81,-7.07 3,-11.16 3.58,-12.26zm127.78 153.54l0 0c0,-1.11 0.58,-3.23 1.73,-6.35l0 0c1.89,-5.01 3,-9.63 3.33,-13.86 0.33,-4.23 0.49,-9.1 0.49,-14.6l0 0 0.25 -18.8 0 -39.98c0,-9.82 0,-17.52 0,-23.11 0,-5.63 -0.09,-9.2 -0.25,-10.72l0 0c-0.37,-1.68 -0.8,-3.51 -1.29,-5.48 -0.46,-1.97 -1.22,-4.09 -2.28,-6.35l0 0c-0.95,-2.38 -1.65,-4.54 -2.1,-6.47 -0.45,-1.93 -0.68,-3.74 -0.68,-5.42l0 0c0,-3.33 1.52,-6 4.56,-8.01 3.08,-2.01 7.07,-3.02 11.96,-3.02l0 0 2.83 0c6.41,0 11.69,1.19 15.83,3.57 4.15,2.43 6.23,6.04 6.23,10.85l0 0c0,0.94 -0.19,2.05 -0.56,3.32 -0.37,1.28 -0.8,2.72 -1.29,4.32l0 0c-0.94,2.91 -2.07,6.59 -3.39,11.03l0 0c-0.94,4.23 -1.42,22.75 -1.42,55.57l0 0c0,33.15 0.85,51.76 2.53,55.82l0 0c1.52,4.44 4.25,7.15 8.19,8.14 3.99,0.98 10.46,1.48 19.41,1.48l0 0c4.44,0 8.14,-0.21 11.09,-0.62 2.96,-0.41 5.65,-0.9 8.07,-1.48 2.39,-0.57 4.54,-1.29 6.47,-2.15 1.93,-0.83 3.99,-1.67 6.17,-2.53l0 0c4.43,-1.69 7.59,-2.53 9.48,-2.53l0 0c5.55,0 8.38,3.76 8.51,11.28l0 0 0 2.83c0,6.41 -1.93,10.68 -5.8,12.82 -3.86,2.13 -10.94,3.2 -21.25,3.2l0 0 -25.14 0 -3.14 -0.31 -3.21 0c-25.09,0 -40.42,-0.65 -45.96,-1.97l0 0c-6.24,-1.23 -9.37,-4.72 -9.37,-10.47zm237.28 12.14l0 0 -7.21 0c-1.31,0 -3.2,-0.13 -5.67,-0.37 -2.42,-0.29 -4.84,-0.85 -7.27,-1.67 -2.38,-0.78 -4.46,-1.85 -6.22,-3.2 -1.73,-1.32 -2.59,-2.96 -2.59,-4.93l0 0c0,-2.55 1.36,-6.51 4.07,-11.89l0 0c3.12,-5.75 5.05,-11.83 5.79,-18.24l0 0c0.41,-3.49 0.74,-9.28 0.98,-17.37 0.29,-8.1 0.44,-18.69 0.44,-31.8l0 0c0,-13.1 -0.09,-23.62 -0.25,-31.54 -0.21,-7.93 -0.49,-13.35 -0.86,-16.27l0 0c-0.74,-5.75 -2.67,-10.84 -5.79,-15.28l0 0c-2.92,-4.44 -4.38,-8.11 -4.38,-11.03l0 0c0,-2.34 1.01,-4.17 3.02,-5.48 2.01,-1.32 4.37,-2.38 7.09,-3.21 2.67,-0.78 5.42,-1.31 8.25,-1.6 2.84,-0.29 5.01,-0.43 6.53,-0.43l0 0 4.93 0c5.96,0 10.58,1.09 13.87,3.27l0 0c2.91,2.34 4.37,4.64 4.37,6.9l0 0 0 1.72c0,1.11 -1.09,3.99 -3.27,8.63l0 0c-2.34,4.02 -3.75,9.63 -4.25,16.82l0 0c-0.37,3.49 -0.7,9.82 -0.98,18.98 -0.29,9.2 -0.43,21.29 -0.43,36.29l0 0c0,15.07 0.06,26.76 0.18,35.05 0.08,8.3 0.23,13.25 0.43,14.85l0 0c0.54,3.29 1.93,7.15 4.19,11.59l0 0c2.38,4.27 3.57,7.8 3.57,10.59l0 0c0,2.76 -1.84,5.06 -5.54,6.9 -3.66,1.81 -7.99,2.72 -13,2.72zm173.94 -147.75l0 0c-16.6,9.61 -24.9,30.39 -24.9,62.35l0 0c0,9.24 0.87,17.93 2.59,26.06 1.77,8.09 4.72,15.08 8.87,20.95 4.15,5.92 9.55,10.56 16.21,13.93 6.61,3.4 14.97,5.11 25.07,5.11l0 0c9.62,0 21.69,-4.15 36.23,-12.45l0 0c3.86,-2.34 7.01,-3.51 9.43,-3.51l0 0c3.49,0 5.24,2.3 5.24,6.9l0 0c0,2.38 -1.44,5.59 -4.31,9.61 -2.88,4.07 -6.86,7.56 -11.96,10.48l0 0c-11.95,6.77 -25.42,10.12 -40.42,10.04l0 0 -3.82 0c-12.16,0 -22.75,-2.22 -31.79,-6.65 -9.08,-4.44 -16.59,-10.42 -22.55,-17.93 -6,-7.56 -10.52,-16.31 -13.56,-26.25 -2.99,-9.94 -4.49,-20.37 -4.49,-31.3l0 0 0 -4.13c0,-12.73 1.64,-24.6 4.93,-35.61 3.32,-11.05 8.35,-20.62 15.09,-28.71 6.74,-8.14 15.22,-14.54 25.45,-19.23 10.23,-4.72 22.3,-7.08 36.23,-7.08l0 0c22.63,0 37.11,5.32 43.43,15.96l0 0c2.55,4.43 3.78,8.4 3.7,11.89l0 0c0,7.18 -2.51,10.72 -7.52,10.6l0 0c-1.68,0 -5.25,-1.83 -10.72,-5.49l0 0c-5.58,-3.86 -11.17,-6.76 -16.76,-8.69 -5.62,-1.93 -11.87,-2.89 -18.73,-2.89l0 0c-6.98,0 -13.96,2.01 -20.94,6.04zm179.41 135.61l0 0c0,-1.11 0.58,-3.23 1.73,-6.35l0 0c1.89,-5.01 3,-9.63 3.33,-13.86 0.33,-4.23 0.49,-9.1 0.49,-14.6l0 0 0.25 -18.8 0 -39.98c0,-9.82 0,-17.52 0,-23.11 0,-5.63 -0.09,-9.2 -0.25,-10.72l0 0c-0.37,-1.68 -0.8,-3.51 -1.29,-5.48 -0.46,-1.97 -1.22,-4.09 -2.28,-6.35l0 0c-0.95,-2.38 -1.65,-4.54 -2.1,-6.47 -0.49,-1.93 -0.74,-3.74 -0.74,-5.42l0 0c0,-3.33 1.54,-6 4.62,-8.01 3.08,-2.01 7.07,-3.02 11.96,-3.02l0 0 2.83 0c6.41,0 11.69,1.19 15.84,3.57 4.14,2.43 6.22,6.04 6.22,10.85l0 0c0,0.94 -0.19,2.05 -0.56,3.32 -0.41,1.28 -0.84,2.72 -1.29,4.32l0 0c-0.95,2.91 -2.07,6.59 -3.39,11.03l0 0c-0.94,4.23 -1.42,22.75 -1.42,55.57l0 0c0,33.15 0.85,51.76 2.53,55.82l0 0c1.52,4.44 4.25,7.15 8.19,8.14 3.99,0.98 10.46,1.48 19.41,1.48l0 0c4.44,0 8.14,-0.21 11.09,-0.62 2.96,-0.41 5.65,-0.9 8.07,-1.48 2.39,-0.57 4.54,-1.29 6.47,-2.15 1.93,-0.83 3.99,-1.67 6.17,-2.53l0 0c4.43,-1.69 7.6,-2.53 9.48,-2.53l0 0c5.55,0 8.38,3.76 8.51,11.28l0 0 0 2.83c0,6.41 -1.95,10.68 -5.86,12.82 -3.86,2.13 -10.92,3.2 -21.19,3.2l0 0 -25.14 0 -3.14 -0.31 -3.27 0c-25.05,0 -40.36,-0.65 -45.9,-1.97l0 0c-6.24,-1.23 -9.37,-4.72 -9.37,-10.47zm270.49 -88.91l0 0 18.54 -3.14c8.88,0 13.36,4.04 13.44,12.13l0 0c0,4.81 -1.01,8.65 -3.02,11.53 -2.06,2.87 -4.54,4.31 -7.46,4.31l0 0c-1.52,0 -3.24,-0.12 -5.17,-0.37 -1.93,-0.29 -4.25,-0.64 -6.97,-1.05l0 0c-2.75,-0.53 -5.13,-0.9 -7.14,-1.11 -2.02,-0.16 -3.78,-0.24 -5.3,-0.24l0 0c-5.18,0 -9.43,0.26 -12.76,0.8 -3.28,0.57 -5.85,1.79 -7.7,3.63 -1.8,1.85 -3.06,4.46 -3.76,7.83 -0.65,3.41 -0.98,7.88 -0.98,13.43l0 0c0,11.42 1.5,19.88 4.5,25.38 2.95,5.51 8.95,8.26 17.99,8.26l0 0c12.16,0 22.92,-0.88 32.28,-2.65l0 0c8.67,-1.68 13.95,-2.52 15.84,-2.52l0 0c5.91,0 8.91,2.3 8.99,6.9l0 0 0 2.83c0,7.15 -4.41,11.62 -13.24,13.43l0 0c-6.25,1.32 -21.71,1.97 -46.4,1.97l0 0 -4.68 0c-20.09,0 -33.27,-0.94 -39.56,-2.83l0 0c-6.61,-1.68 -9.92,-4.7 -9.92,-9.06l0 0 0 -3.51 2.84 -10.35c1.89,-6.98 2.87,-22.06 2.95,-45.23l0 0 1.98 -55.26c0,-11.05 -0.29,-17.81 -0.87,-20.27l0 0c-0.16,-2.14 -0.9,-4.95 -2.21,-8.44l0 0c-0.58,-1.73 -1.07,-3.35 -1.48,-4.87 -0.45,-1.56 -0.68,-3.1 -0.68,-4.62l0 0c0,-7.15 19.9,-10.72 59.7,-10.72l0 0 27.54 0c13.48,0 20.21,4.6 20.21,13.8l0 0c0,2.95 -0.9,5.21 -2.71,6.78 -1.85,1.51 -4.08,2.27 -6.71,2.27l0 0c-1.52,0 -3.52,-0.08 -5.98,-0.24 -2.42,-0.21 -5.48,-0.49 -9.18,-0.86l0 0c-7.15,-0.58 -15.16,-0.91 -24.03,-0.99l0 0c-4.44,0 -8.17,0.53 -11.21,1.6 -3.08,1.11 -5.63,3.04 -7.64,5.79 -2.06,2.8 -3.58,6.53 -4.56,11.22 -0.99,4.64 -1.48,10.49 -1.48,17.56l0 0c0,6.24 1.85,10.61 5.54,13.12 3.66,2.51 10.48,3.76 20.46,3.76z" paint-order="stroke"/>
  </g>
  <g id="tagline-b2e4f6b5-0885-46b9-8cb5-dfaaab4f35c5-logo-path">
   <path class="fil1" d="M785.01 1980.8l0 0 9.8 -1.67c4.72,0 7.11,2.16 7.15,6.47l0 0c0,2.55 -0.54,4.58 -1.6,6.1 -1.07,1.56 -2.39,2.34 -3.95,2.34l0 0c-0.78,0 -1.68,-0.08 -2.71,-0.24 -1.03,-0.17 -2.28,-0.35 -3.76,-0.56l0 0c-1.44,-0.28 -2.69,-0.47 -3.76,-0.55 -1.1,-0.12 -2.05,-0.19 -2.83,-0.19l0 0c-2.75,0 -5.01,0.17 -6.78,0.5 -1.76,0.28 -3.14,0.92 -4.13,1.91 -0.94,0.94 -1.6,2.32 -1.97,4.12 -0.37,1.81 -0.55,4.19 -0.55,7.15l0 0c0,6.08 0.8,10.58 2.4,13.49 1.56,2.96 4.77,4.44 9.61,4.44l0 0c6.45,0 12.16,-0.47 17.13,-1.42l0 0c4.6,-0.9 7.41,-1.35 8.44,-1.35l0 0c3.12,0 4.73,1.23 4.81,3.7l0 0 0 1.47c0,3.82 -2.36,6.21 -7.09,7.15l0 0c-3.32,0.7 -11.54,1.05 -24.64,1.05l0 0 -2.53 0c-10.68,0 -17.7,-0.49 -21.07,-1.48l0 0c-3.49,-0.9 -5.24,-2.53 -5.24,-4.87l0 0 0 -1.85 1.48 -5.48c1.03,-3.74 1.56,-11.77 1.6,-24.09l0 0 1.05 -29.39c0,-5.87 -0.14,-9.47 -0.43,-10.78l0 0c-0.13,-1.15 -0.54,-2.65 -1.23,-4.5l0 0c-0.29,-0.9 -0.56,-1.77 -0.81,-2.59 -0.2,-0.82 -0.3,-1.64 -0.3,-2.46l0 0c0,-3.78 10.57,-5.67 31.73,-5.67l0 0 14.66 0c7.19,0 10.79,2.44 10.79,7.33l0 0c0,1.56 -0.5,2.75 -1.48,3.57 -0.99,0.83 -2.18,1.24 -3.58,1.24l0 0c-0.82,0 -1.87,-0.05 -3.14,-0.13 -1.31,-0.12 -2.96,-0.26 -4.93,-0.43l0 0c-3.78,-0.33 -8.03,-0.51 -12.75,-0.55l0 0c-2.39,0 -4.38,0.28 -5.98,0.86 -1.64,0.57 -3,1.6 -4.07,3.08 -1.06,1.48 -1.87,3.47 -2.4,5.98 -0.53,2.46 -0.8,5.56 -0.8,9.3l0 0c0,3.33 0.99,5.65 2.96,6.96 1.93,1.36 5.56,2.04 10.9,2.04zm42.95 4.93l0 0c0,-2.63 0.59,-5.08 1.78,-7.34 1.2,-2.21 2.88,-4.1 5.06,-5.67 2.13,-1.6 4.68,-2.83 7.64,-3.69 2.96,-0.91 6.2,-1.36 9.73,-1.36l0 0c1.44,0 3.31,0.08 5.61,0.25 2.3,0.16 4.54,0.53 6.71,1.11 2.14,0.57 3.99,1.5 5.55,2.77 1.52,1.27 2.28,2.98 2.28,5.11l0 0c0,3.74 -1.19,5.61 -3.57,5.61l0 0c-0.78,0 -3.02,-0.92 -6.72,-2.77l0 0c-3.74,-1.77 -7.23,-2.65 -10.47,-2.65l0 0c-3.41,0 -5.96,0.76 -7.64,2.28 -1.69,1.52 -2.53,3.53 -2.53,6.04l0 0c0,1.27 0.25,2.3 0.74,3.08 0.53,0.82 1.38,1.62 2.53,2.4 1.19,0.78 2.79,1.56 4.8,2.34 2.01,0.82 4.54,1.85 7.58,3.08l0 0c6.08,2.47 10.68,5.1 13.8,7.89 3.12,2.79 4.68,6.9 4.68,12.32l0 0c0,2.75 -0.57,5.28 -1.72,7.58 -1.19,2.34 -2.88,4.38 -5.05,6.1 -2.14,1.73 -4.71,3.08 -7.7,4.07 -2.96,0.98 -6.23,1.48 -9.8,1.48l0 0c-12.04,0 -19.53,-2.37 -22.49,-7.09l0 0c-0.9,-1.52 -1.38,-2.83 -1.42,-3.94l0 0c0,-3.82 1.17,-5.73 3.51,-5.73l0 0c0.7,0 3.33,1.13 7.89,3.39l0 0c4.31,2.46 8.26,3.69 11.83,3.69l0 0c3.62,0 6.43,-0.74 8.44,-2.22 2.01,-1.47 3.02,-3.55 3.02,-6.22l0 0c0,-1.35 -0.27,-2.53 -0.8,-3.51 -0.49,-0.99 -1.36,-1.91 -2.59,-2.77 -1.27,-0.87 -2.89,-1.73 -4.87,-2.59 -1.97,-0.86 -4.47,-1.91 -7.51,-3.14l0 0c-2.34,-0.91 -4.62,-1.93 -6.84,-3.08 -2.18,-1.2 -4.13,-2.53 -5.86,-4.01 -1.68,-1.48 -3.03,-3.24 -4.06,-5.3 -1.03,-2.05 -1.54,-4.56 -1.54,-7.51zm86.87 48.86l0 0 -2.46 0c-6.45,0 -10.91,-2.49 -13.37,-7.46 -2.51,-4.93 -3.76,-12.51 -3.76,-22.74l0 0c0,-10.06 -0.55,-17.06 -1.66,-21.01l0 0c-0.5,-1.52 -1.63,-3.16 -3.39,-4.93l0 0c-1.73,-1.76 -2.59,-3.3 -2.59,-4.62l0 0 0 -0.86c0,-1.03 1.03,-2.26 3.08,-3.7l0 0c0.99,-0.69 1.77,-1.23 2.34,-1.6 0.58,-0.37 1.01,-0.84 1.3,-1.41 0.32,-0.58 0.61,-1.32 0.86,-2.22 0.25,-0.91 0.59,-2.3 1.05,-4.19l0 0c0.98,-3.7 2.03,-6.29 3.14,-7.77 1.07,-1.47 2.52,-2.21 4.37,-2.21l0 0c1.85,0 3.12,0.53 3.82,1.6 0.7,1.11 1.48,3.28 2.34,6.53l0 0c0.41,1.64 0.78,3 1.11,4.07 0.37,1.1 0.87,2.01 1.48,2.71 0.66,0.74 1.5,1.37 2.53,1.91 1.03,0.57 2.46,1.17 4.31,1.78l0 0c3.62,1.24 5.38,2.78 5.3,4.62l0 0c0,1.69 -1.87,3.23 -5.61,4.63l0 0c-3.61,1.23 -5.99,2.87 -7.14,4.93l0 0c-1.85,3.73 -2.76,10.37 -2.72,19.9l0 0c0,9.65 0.81,15.44 2.41,17.37l0 0c1.64,2.14 4.33,3.47 8.07,4.01l0 0c3.7,0.41 5.54,1.8 5.54,4.19l0 0c0,1.72 -1.06,3.22 -3.2,4.49 -2.14,1.32 -4.52,1.98 -7.15,1.98zm32.78 -7.83l1.48 -0.25 0.99 0c0.28,0.09 1.21,0.17 2.77,0.25l0 0c1.35,0 2.5,0.7 3.45,2.1 0.99,1.43 1.48,3.18 1.48,5.23l0 0 0 2.34c-0.21,4.81 -3,7.21 -8.38,7.21l0 0 -0.92 0c-5.1,0 -7.65,-2.05 -7.65,-6.16l0 0 -0.3 -1.42 0 -2.09c0,-1.97 0.51,-3.64 1.54,-4.99 1.02,-1.4 2.52,-2.1 4.49,-2.1l0 0c0.37,-0.08 0.72,-0.12 1.05,-0.12l0 0zm104.01 -55.08l0 0c0,-9.78 -4.77,-14.65 -14.3,-14.6l0 0c-3.69,0 -7.45,1.58 -11.27,4.74l0 0c-5.22,4.6 -8.36,6.9 -9.43,6.9l0 0c-2.34,0 -3.51,-1.87 -3.51,-5.61l0 0c0,-1.97 0.74,-3.96 2.22,-5.97 1.47,-1.98 3.45,-3.8 5.91,-5.49 2.51,-1.64 5.38,-2.97 8.63,-4 3.2,-1.03 6.55,-1.54 10.04,-1.54l0 0 2.03 0c7.07,0 12.86,2.11 17.38,6.34 4.56,4.19 6.84,9.9 6.84,17.13l0 0c0,9.66 -4.95,18.94 -14.85,27.85l0 0c-1.44,1.32 -2.94,2.67 -4.5,4.07 -1.52,1.4 -3.1,2.81 -4.74,4.25l0 0c-3.33,2.88 -6.06,5.44 -8.2,7.7 -2.18,2.22 -3.26,4.38 -3.26,6.47l0 0c0,1.93 3.82,2.9 11.46,2.9l0 0c2.13,0 4.17,-0.04 6.1,-0.13 1.88,-0.12 3.71,-0.28 5.48,-0.49l0 0 5.05 -0.74c1.73,-0.41 3.23,-0.61 4.5,-0.61l0 0c3.33,0 4.95,1.64 4.87,4.92l0 0c0,3.29 -1.32,5.55 -3.95,6.78l0 0c-2.58,1.23 -7.53,1.85 -14.85,1.85l0 0 -14.41 0c-11.71,0 -18.34,-0.35 -19.9,-1.05l0 0c-1.85,-0.61 -2.78,-2.67 -2.78,-6.16l0 0c0,-3.41 1.73,-7.27 5.18,-11.58 3.45,-4.31 8.4,-9.41 14.85,-15.28l0 0c6.36,-5.88 11.19,-11.01 14.48,-15.41 3.28,-4.43 4.93,-8.85 4.93,-13.24zm62.66 -25.88l0 0 4 0c3.7,0 7.5,1.03 11.4,3.08l0 0c11.83,6.28 17.73,19.86 17.68,40.73l0 0 0 1.35c0,5.1 -0.57,10.33 -1.72,15.71 -1.11,5.34 -2.94,10.19 -5.48,14.54 -2.59,4.4 -5.96,7.97 -10.11,10.73 -4.15,2.75 -9.3,4.12 -15.46,4.12l0 0 -2.65 0c-4.03,0 -7.81,-0.94 -11.34,-2.83l0 0c-3.82,-2.05 -6.86,-4.7 -9.12,-7.95 -2.26,-3.24 -3.98,-6.67 -5.17,-10.29 -1.16,-3.61 -1.94,-7.25 -2.35,-10.9 -0.37,-3.7 -0.55,-7.05 -0.55,-10.05l0 0 0 -4.19c0,-6.65 0.88,-12.85 2.65,-18.6 1.76,-5.71 3.96,-10.33 6.59,-13.87l0 0c2.67,-3.49 5.96,-6.3 9.86,-8.44 3.94,-2.09 7.86,-3.14 11.77,-3.14zm-17.62 43.5l0 0 0 6.16c0,4.31 0.37,8.36 1.11,12.14 0.73,3.78 1.84,7.08 3.32,9.92 1.48,2.83 3.27,5.07 5.36,6.71 2.1,1.69 4.54,2.53 7.33,2.53l0 0 0.93 0c3.7,0 6.72,-1.27 9.06,-3.82 2.3,-2.55 4.1,-5.61 5.42,-9.18 1.31,-3.57 2.22,-7.31 2.71,-11.21 0.49,-3.95 0.74,-7.23 0.74,-9.86l0 0 0 -5.3c0,-9.86 -1.48,-17.68 -4.44,-23.48 -2.91,-5.79 -7,-8.68 -12.26,-8.68l0 0 -0.92 0c-3.7,0 -6.76,1.25 -9.18,3.76 -2.39,2.54 -4.26,5.6 -5.61,9.18 -1.32,3.61 -2.24,7.35 -2.77,11.21 -0.54,3.86 -0.8,7.17 -0.8,9.92zm106.28 -17.62l0 0c0,-9.78 -4.77,-14.65 -14.3,-14.6l0 0c-3.69,0 -7.45,1.58 -11.27,4.74l0 0c-5.22,4.6 -8.36,6.9 -9.43,6.9l0 0c-2.34,0 -3.51,-1.87 -3.51,-5.61l0 0c0,-1.97 0.74,-3.96 2.22,-5.97 1.48,-1.98 3.45,-3.8 5.91,-5.49 2.51,-1.64 5.38,-2.97 8.63,-4 3.2,-1.03 6.55,-1.54 10.04,-1.54l0 0 2.04 0c7.06,0 12.85,2.11 17.37,6.34 4.56,4.19 6.84,9.9 6.84,17.13l0 0c0,9.66 -4.95,18.94 -14.85,27.85l0 0c-1.44,1.32 -2.91,2.67 -4.43,4.07 -1.57,1.4 -3.17,2.81 -4.81,4.25l0 0c-3.33,2.88 -6.06,5.44 -8.2,7.7 -2.17,2.22 -3.26,4.38 -3.26,6.47l0 0c0,1.93 3.82,2.9 11.46,2.9l0 0c2.14,0 4.17,-0.04 6.1,-0.13 1.89,-0.12 3.72,-0.28 5.48,-0.49l0 0 5.06 -0.74c1.72,-0.41 3.22,-0.61 4.49,-0.61l0 0c3.33,0 4.95,1.64 4.87,4.92l0 0c0,3.29 -1.31,5.55 -3.94,6.78l0 0c-2.59,1.23 -7.54,1.85 -14.85,1.85l0 0 -14.42 0c-11.71,0 -18.32,-0.35 -19.84,-1.05l0 0c-1.89,-0.61 -2.83,-2.67 -2.83,-6.16l0 0c0,-3.41 1.72,-7.27 5.17,-11.58 3.45,-4.31 8.4,-9.41 14.85,-15.28l0 0c6.37,-5.88 11.19,-11.01 14.48,-15.41 3.29,-4.43 4.93,-8.85 4.93,-13.24zm35.37 -10.6l0 0 0 -0.74c0,-1.15 0.94,-2.5 2.83,-4.07 1.93,-1.52 4.15,-2.93 6.65,-4.25 2.51,-1.35 4.98,-2.5 7.4,-3.45 2.42,-0.98 4.13,-1.48 5.11,-1.48l0 0 0.93 0c2.26,0 3.75,0.76 4.49,2.28l0 0c0.7,1.44 1.05,4.66 1.05,9.68l0 0 -0.12 3.88c-0.08,0.74 -0.13,1.4 -0.13,1.97l0 0c0,0.21 0,0.41 0,0.62l0 0 -0.49 21.44 0 2.77 -0.12 5.42 0 7.4c0,1.93 0,3.61 0,5.05 0,1.44 0.12,2.77 0.37,4 0.24,1.24 0.63,2.47 1.17,3.7 0.53,1.27 1.25,2.65 2.16,4.13l0 0c1.84,2.87 2.77,5.5 2.77,7.89l0 0c0,2.25 -1.21,4.06 -3.64,5.42 -2.38,1.31 -5.48,1.97 -9.3,1.97l0 0 -1.42 0c-1.27,0 -2.69,-0.14 -4.25,-0.43 -1.6,-0.33 -3.14,-0.8 -4.62,-1.42 -1.48,-0.62 -2.73,-1.46 -3.76,-2.53 -1.03,-1.11 -1.54,-2.42 -1.54,-3.94l0 0c0,-1.97 1.03,-4.39 3.08,-7.27l0 0c1.97,-2.55 3.31,-5.09 4.01,-7.64l0 0c0.57,-2.46 0.9,-9.37 0.98,-20.7l0 0c0,-10.97 -0.67,-18.18 -2.03,-21.63l0 0c-0.9,-2.18 -2.61,-3.63 -5.11,-4.37l0 0c-4.32,-1.24 -6.47,-2.47 -6.47,-3.7z" paint-order="stroke"/>
  </g>
 </g>
</svg>
