<?xml version="1.0" encoding="utf-8"?>
<!-- Generator: Adobe Illustrator 23.0.6, SVG Export Plug-In . SVG Version: 6.00 Build 0)  -->
<svg version="1.1" id="Layer_1" xmlns="http://www.w3.org/2000/svg" xmlns:xlink="http://www.w3.org/1999/xlink" x="0px" y="0px"
	 viewBox="0 0 487.9 355" style="enable-background:new 0 0 487.9 355;" xml:space="preserve">
<style type="text/css">
	.st0{fill:#BC1F30;}
	.st1{fill:#FFFFFF;}
	.st2{fill:#878787;}
</style>
<title>Stylicle-Icon</title>
<path class="st0" d="M357.4,266.9c0,10.3-8.3,18.6-18.6,18.6s-18.6-8.3-18.6-18.6c0-10.3,8.3-18.6,18.6-18.6l0,0
	C349.1,248.2,357.4,256.6,357.4,266.9L357.4,266.9z"/>
<path class="st0" d="M166.4,266.5c0,10.1-8.3,18.3-18.4,18.3s-18.3-8.3-18.3-18.4s8.2-18.3,18.3-18.3l0,0
	C158.1,248.1,166.3,256.3,166.4,266.5C166.4,266.4,166.4,266.5,166.4,266.5z"/>
<path class="st1" d="M337.6,339.6c-40.3,0-72.9-32.6-72.9-72.9s32.6-72.9,72.9-72.9s72.9,32.6,72.9,72.9l0,0
	C410.5,307,377.8,339.6,337.6,339.6L337.6,339.6z M148.3,339.6c-40.3,0-72.9-32.6-72.9-72.9s32.6-72.9,72.9-72.9
	s72.9,32.6,72.9,72.9l0,0l0,0C221.2,307,188.5,339.6,148.3,339.6z M419.3,195.2h-30c-11.2-8.2-24.3-13.6-38-15.8
	c-16-2.5-32.3-0.6-47.2,5.6h-0.2c-13.8,6.2-35.9,10.2-60.9,10.2s-47.1-4-60.9-10.2h-0.2c-14.3-5.9-34.6-8.2-51.4-5.6
	c-13.7,2.1-26.8,7.5-38,15.8h-26c-6.8,0-12.3,5.5-12.3,12.3v25.3c0,5.3,3.5,10,8.6,11.7c-1.2,4.4-2,8.8-2.4,13.3
	c-4.9,48.6,30.6,91.9,79.1,96.8c5,0.5,10.1,0.6,15.2,0.2c37.9-2.7,70.2-30.1,79.3-67c3.2-13,3.5-26.5,0.6-39.5
	c-1-4.6,1.9-9.1,6.5-10.1s9.1,1.9,10.1,6.5v0.1c0.2,1.2,0.2,2.4,0,3.5c-2.8,13-2.6,26.6,0.6,39.5c9.1,36.9,41.5,64.3,79.3,67
	c48.7,3.5,91-33.1,94.5-81.8c0.4-5.1,0.3-10.2-0.2-15.2c-0.5-4.5-1.3-8.9-2.4-13.3c5.1-1.6,8.6-6.3,8.6-11.7v-25.3
	C431.7,200.7,426.2,195.2,419.3,195.2"/>
<path class="st1" d="M450.9,89.7c0,0,32.8-14.1,18.3-72.9c0,0-58.7,48.4-243.4-8.4C63-41.8-20.2,146.6,4.2,245.6
	c2.5,9.7,12.4,15.6,22.1,13.1c8.8-2.2,14.5-10.6,13.6-19.5c-3.6-31.4-2.2-92.7,52.9-132.8c39.7-28.9,72.2,52.1,176.8,29.9
	c154.9-33,178.4,68.7,181.8,108.1c0.9,9.1,8.9,15.7,18,14.8c7.6-0.7,13.7-6.6,14.7-14.2C488.9,208,497,110.9,450.9,89.7"/>
<path class="st2" d="M151.2,241.9c-1,2.3-2.4,4.3-4.3,6l13.6,33c2.5-0.1,5,0.3,7.3,1.2c8.8,3.6,13,13.7,9.3,22.5
	c-3.6,8.8-13.7,13-22.5,9.3c-8.8-3.6-13-13.7-9.3-22.5l0,0c1-2.3,2.4-4.3,4.3-6l-13.6-33c-2.5,0.1-5-0.3-7.3-1.2
	c-8.8-3.6-12.9-13.7-9.3-22.5s13.7-12.9,22.5-9.3C150.6,223.1,154.8,233.1,151.2,241.9L151.2,241.9L151.2,241.9z M195.5,260.3
	c-3.5,8.7-13.4,13-22.1,9.5c-2.4-1-4.6-2.5-6.4-4.5l-3,1.3l-4.5-10.9l3-1.3c-0.1-2.5,0.3-5,1.2-7.3c3.6-8.8,13.7-12.9,22.5-9.3
	S199.2,251.5,195.5,260.3L195.5,260.3L195.5,260.3z M101,273.1c3.6-8.8,13.7-12.9,22.5-9.3c2.3,1,4.3,2.4,6,4.3l3-1.2l4.5,10.9
	l-3,1.2c0.3,9.5-7.1,17.4-16.5,17.7s-17.4-7.1-17.7-16.5C99.7,277.8,100.1,275.3,101,273.1L101,273.1z M86.7,241.2
	c-14.1,34,2.1,73.1,36.1,87.1c34,14.1,73.1-2.1,87.1-36.1c14.1-34-2.1-73-36.1-87.1C139.8,191,100.8,207.1,86.7,241.2
	C86.7,241.1,86.7,241.1,86.7,241.2L86.7,241.2"/>
<path class="st1" d="M130.9,235.5c-0.6,1.4-0.6,3.1,0,4.5l5.1,12.4l13.7,33l5.1,12.4c1.2,3,4.7,4.4,7.7,3.2c3-1.3,4.4-4.7,3.2-7.7
	l-5.1-12.4l-13.6-33l-5.2-12.4c-1.3-3-4.7-4.4-7.7-3.2C132.6,232.9,131.5,234,130.9,235.5"/>
<path class="st1" d="M162.5,254.4l-3,1.3l4.5,10.9l3-1.3l12.4-5.1c3-1.3,4.4-4.7,3.2-7.7s-4.7-4.4-7.7-3.2L162.5,254.4"/>
<path class="st1" d="M134,279l3-1.2l-4.5-10.9l-3,1.2l-12.4,5.1c-3,1.3-4.4,4.7-3.2,7.7c1.2,3,4.7,4.4,7.7,3.2l0,0L134,279"/>
<path class="st2" d="M357.1,251.2c-2.3,0.9-4.8,1.4-7.3,1.2l-13.6,33c1.8,1.7,3.3,3.7,4.3,6c3.6,8.8-0.5,18.8-9.3,22.5
	c-8.8,3.6-18.8-0.5-22.5-9.3c-3.6-8.8,0.5-18.8,9.3-22.5l0,0l0,0c2.3-0.9,4.8-1.4,7.3-1.2l13.6-33c-1.9-1.7-3.3-3.7-4.3-6
	c-3.6-8.8,0.5-18.8,9.3-22.5c8.8-3.6,18.8,0.5,22.5,9.3S365.9,247.5,357.1,251.2L357.1,251.2L357.1,251.2L357.1,251.2z M375.5,295.6
	c-8.7,3.7-18.7-0.4-22.4-9.1c-1-2.4-1.4-4.9-1.3-7.5l-3-1.2l4.5-10.9l3,1.2c1.7-1.9,3.7-3.3,6-4.3c8.7-3.8,18.8,0.2,22.6,8.9
	s-0.2,18.8-8.9,22.6L375.5,295.6z M299.7,237.8c8.7-3.7,18.7,0.4,22.4,9.1c1,2.4,1.5,4.9,1.3,7.5l3,1.3l-4.5,10.9l-3-1.3
	c-6.4,7-17.3,7.4-24.3,1s-7.4-17.3-1-24.3C295.3,240.2,297.4,238.8,299.7,237.8L299.7,237.8z M312.1,205.1
	c-34,14.1-50.2,53.1-36.1,87.1s53.1,50.2,87.1,36.1s50.2-53.1,36.1-87.1C385.1,207.1,346.1,191,312.1,205.1L312.1,205.1L312.1,205.1
	"/>
<path class="st1" d="M347.3,232.3c-1.4,0.6-2.6,1.7-3.2,3.2l-5.1,12.4l-13.6,33l-5.1,12.4c-1.2,3,0.2,6.4,3.2,7.7l0,0l0,0
	c3,1.1,6.3-0.3,7.6-3.2l5.2-12.4l13.6-33l5.2-12.4c1.2-3-0.2-6.5-3.2-7.7C350.4,231.8,348.7,231.8,347.3,232.3"/>
<path class="st1" d="M356.3,268.1l-3-1.2l-4.5,10.9l3,1.2l12.4,5.1c3,1.2,6.4-0.2,7.7-3.2c1.2-3-0.2-6.5-3.2-7.7L356.3,268.1"/>
<path class="st1" d="M318.8,265.3l3,1.3l4.5-10.9l-3-1.3l-12.4-5.1c-1.4-0.6-3.1-0.6-4.5,0s-2.6,1.7-3.2,3.2c-1.2,3,0.2,6.5,3.2,7.7
	L318.8,265.3"/>
</svg>
