<svg xmlns="http://www.w3.org/2000/svg" viewBox="0 0 216 62.4"><defs><style>.a{fill:#fff;}</style></defs><title>IOS-App-Store-Icon</title><path d="M209.4,63.2H8.2A7.38,7.38,0,0,1,.8,55.8V8.2A7.38,7.38,0,0,1,8.2.8H209.4a7.38,7.38,0,0,1,7.4,7.4V55.9a7.36,7.36,0,0,1-7.4,7.3" transform="translate(-0.8 -0.8)"/><path class="a" d="M75.5,16.8l-.8-2.6a14.62,14.62,0,0,1-.5-2h0c-.2.6-.3,1.3-.5,2l-.8,2.6Zm-3.1,1.4-.9,3h-2l3.4-10.5h2.4l3.4,10.5H76.6l-1-3" transform="translate(-0.8 -0.8)"/><path class="a" d="M81.7,13.6l1.2,3.9a18,18,0,0,1,.5,1.9h0a18,18,0,0,1,.5-1.9l1.2-3.9h2l-2.9,7.6H82.3l-2.8-7.6" transform="translate(-0.8 -0.8)"/><path class="a" d="M93,17.5c-1.4,0-2.7.3-2.7,1.4A1,1,0,0,0,91.4,20a1.58,1.58,0,0,0,1.5-1,.6.6,0,0,0,.1-.4Zm1.9,1.9a9.18,9.18,0,0,0,.1,1.8H93.3l-.1-.8h-.1a2.58,2.58,0,0,1-2.2,1,2.29,2.29,0,0,1-2.4-2.3c0-1.9,1.7-2.9,4.5-2.9v-.1c0-.5-.2-1.3-1.5-1.3a3.17,3.17,0,0,0-2,.6L89,14.1a6,6,0,0,1,2.8-.7c2.4,0,3.1,1.5,3.1,3.2" transform="translate(-0.8 -0.8)"/><path class="a" d="M97.6,13.6h1.9v7.6H97.6Zm.9-1.1a1.1,1.1,0,0,1-1.1-1,1,1,0,0,1,1.1-1,1,1,0,1,1,0,2" transform="translate(-0.8 -0.8)"/><path class="a" d="M102.3,21.2h1.9V10.1h-1.9Z" transform="translate(-0.8 -0.8)"/><path class="a" d="M111,17.5c-1.4,0-2.7.3-2.7,1.4a1,1,0,0,0,1.1,1.1,1.58,1.58,0,0,0,1.5-1V17.5Zm1.9,1.9a9.18,9.18,0,0,0,.1,1.8h-1.7l-.1-.8h0a2.93,2.93,0,0,1-2.3,1,2.29,2.29,0,0,1-2.4-2.3c0-1.9,1.7-2.9,4.5-2.9v-.1c0-.5-.2-1.3-1.5-1.3a3.17,3.17,0,0,0-2,.6l-.4-1.3a5.86,5.86,0,0,1,2.7-.7c2.4,0,3.1,1.5,3.1,3.2" transform="translate(-0.8 -0.8)"/><path class="a" d="M117.5,18.1v.5a1.71,1.71,0,0,0,1.7,1.3c1.2,0,1.9-1,1.9-2.5,0-1.3-.6-2.4-1.9-2.4a1.81,1.81,0,0,0-1.7,1.4,4.33,4.33,0,0,0-.1.5v1.2Zm-1.9-8h1.9v4.5h0a2.84,2.84,0,0,1,2.4-1.2c1.9,0,3.2,1.5,3.2,3.9,0,2.7-1.7,4.1-3.4,4.1a2.61,2.61,0,0,1-2.4-1.3h0l-.1,1.1h-1.6c0-.5.1-1.4.1-2.1" transform="translate(-0.8 -0.8)"/><path class="a" d="M125.4,21.2h1.9V10.1h-1.9Z" transform="translate(-0.8 -0.8)"/><path class="a" d="M134.8,16.6a1.69,1.69,0,0,0-1.6-1.9,1.94,1.94,0,0,0-1.8,1.9Zm-3.3,1.3c0,1.4,1.1,2,2.3,2a6.23,6.23,0,0,0,2.1-.3l.3,1.3a6.84,6.84,0,0,1-2.7.5,3.55,3.55,0,0,1-3.9-3.8c0-2.1,1.3-4.1,3.7-4.1s3.3,2,3.3,3.7a1.72,1.72,0,0,1-.1.8" transform="translate(-0.8 -0.8)"/><path class="a" d="M146.1,20c1.1,0,1.9-1.1,1.9-2.6,0-1.2-.5-2.6-1.8-2.6s-1.9,1.3-1.9,2.6c0,1.5.7,2.6,1.8,2.6Zm0,1.4a3.7,3.7,0,0,1-3.8-3.9,3.7,3.7,0,0,1,3.9-4,3.65,3.65,0,0,1,3.8,3.9,3.8,3.8,0,0,1-3.9,4" transform="translate(-0.8 -0.8)"/><path class="a" d="M152.2,15.9a16.22,16.22,0,0,0-.1-2.3h1.7l.1,1.1h0a2.73,2.73,0,0,1,2.4-1.3c1.3,0,2.7.9,2.7,3.3v4.5h-1.9V16.9c0-1.1-.4-1.9-1.4-1.9a1.53,1.53,0,0,0-1.5,1.1,1.27,1.27,0,0,0-.1.6v4.5h-1.9" transform="translate(-0.8 -0.8)"/><path class="a" d="M168,11.6v1.9h1.8V15H168v3.3c0,.9.3,1.4,1,1.4a2.2,2.2,0,0,0,.8-.1V21a4.64,4.64,0,0,1-1.4.2,2.35,2.35,0,0,1-1.7-.6,2.93,2.93,0,0,1-.6-2.1V15H165V13.6h1.1V12.2" transform="translate(-0.8 -0.8)"/><path class="a" d="M171.9,10.1h1.9v4.5h0a2.19,2.19,0,0,1,1-.9,2.77,2.77,0,0,1,1.3-.3c1.3,0,2.7.9,2.7,3.3v4.5h-1.9V16.9c0-1.1-.4-1.9-1.5-1.9a1.63,1.63,0,0,0-1.5,1.1,1.27,1.27,0,0,0-.1.6v4.6h-1.9" transform="translate(-0.8 -0.8)"/><path class="a" d="M186.2,16.6a1.69,1.69,0,0,0-1.6-1.9,1.94,1.94,0,0,0-1.8,1.9Zm-3.3,1.3c0,1.4,1.1,2,2.3,2a6.23,6.23,0,0,0,2.1-.3l.3,1.3a6.84,6.84,0,0,1-2.7.5,3.55,3.55,0,0,1-3.9-3.8c0-2.1,1.3-4.1,3.7-4.1s3.3,2,3.3,3.7a1.72,1.72,0,0,1-.1.8" transform="translate(-0.8 -0.8)"/><path class="a" d="M48.6,31.4c-.1-5.2,4.3-7.7,4.5-7.9a9.61,9.61,0,0,0-7.6-4.1c-3.2-.3-6.3,1.9-7.9,1.9s-4.1-1.9-6.8-1.8a10.25,10.25,0,0,0-8.5,5.2c-3.7,6.3-.9,15.7,2.6,20.8,1.8,2.5,3.8,5.3,6.5,5.2S35,49,38.1,49s4.1,1.7,6.8,1.6,4.6-2.5,6.3-5.1a24.27,24.27,0,0,0,2.9-5.9,8.54,8.54,0,0,1-5.5-8.2" transform="translate(-0.8 -0.8)"/><path class="a" d="M43.4,16.1a9.21,9.21,0,0,0,2.1-6.6,9.74,9.74,0,0,0-6.1,3.1A8.78,8.78,0,0,0,37.2,19a7.82,7.82,0,0,0,6.2-2.9" transform="translate(-0.8 -0.8)"/><path class="a" d="M80.2,41.3l-1.8-5.6c-.2-.6-.6-1.9-1.1-4h-.1c-.2.9-.6,2.3-1,4l-1.8,5.6Zm6.3,9H82.8l-2-6.3h-7L72,50.3H68.4l6.9-21.4h4.3" transform="translate(-0.8 -0.8)"/><path class="a" d="M100.8,42.5a6.2,6.2,0,0,0-1-3.7,3.44,3.44,0,0,0-3-1.5,4,4,0,0,0-2.3.8,4.64,4.64,0,0,0-1.4,2.2,5.76,5.76,0,0,0-.2,1v2.6a3.86,3.86,0,0,0,1,2.8,3.7,3.7,0,0,0,5.7-.3,6.05,6.05,0,0,0,1.2-3.9m3.5-.1a8.79,8.79,0,0,1-2.1,6.2,6.14,6.14,0,0,1-4.7,2,4.73,4.73,0,0,1-4.4-2.2H93v8.1H89.6V39.9c0-1.7,0-3.3-.1-5.1h3l.2,2.5h.1a6.08,6.08,0,0,1,9.8-.6,9.65,9.65,0,0,1,1.7,5.7" transform="translate(-0.8 -0.8)"/><path class="a" d="M118.5,42.5a6.2,6.2,0,0,0-1-3.7,3.44,3.44,0,0,0-3-1.5,4,4,0,0,0-2.3.8,3.84,3.84,0,0,0-1.3,2.2,5.76,5.76,0,0,0-.2,1v2.6a3.86,3.86,0,0,0,1,2.8,3.7,3.7,0,0,0,5.7-.3,6,6,0,0,0,1.1-3.9m3.5-.1a8.79,8.79,0,0,1-2.1,6.2,6.14,6.14,0,0,1-4.7,2,4.73,4.73,0,0,1-4.4-2.2h-.1v8.1h-3.4V39.9c0-1.7,0-3.3-.1-5.1h3l.2,2.5h.1a6.08,6.08,0,0,1,9.8-.6,9,9,0,0,1,1.7,5.7" transform="translate(-0.8 -0.8)"/><path class="a" d="M141.9,44.3a5.83,5.83,0,0,1-1.9,4.5,8.12,8.12,0,0,1-5.8,1.9,10.33,10.33,0,0,1-5.6-1.3l.8-2.9a9.66,9.66,0,0,0,5,1.4,4.48,4.48,0,0,0,3-.9,3,3,0,0,0,1.1-2.3,2.94,2.94,0,0,0-.9-2.2,9.9,9.9,0,0,0-3-1.7c-3.8-1.4-5.6-3.5-5.6-6.1a5.36,5.36,0,0,1,2-4.3,7.93,7.93,0,0,1,5.2-1.7,10.18,10.18,0,0,1,4.9,1l-.9,2.8a8,8,0,0,0-4.1-1,3.93,3.93,0,0,0-2.8.9,2.46,2.46,0,0,0-.9,1.9,2.64,2.64,0,0,0,1,2.1,11.76,11.76,0,0,0,3.1,1.7,10.73,10.73,0,0,1,4.1,2.6,4.69,4.69,0,0,1,1.3,3.6" transform="translate(-0.8 -0.8)"/><path class="a" d="M153.3,37.4h-3.8v7.5c0,1.9.7,2.9,2,2.9a6.05,6.05,0,0,0,1.5-.2l.1,2.6a7,7,0,0,1-2.7.4,4.22,4.22,0,0,1-3.2-1.2c-.8-.8-1.1-2.2-1.1-4.2V37.4h-2.3V34.8h2.3V32l3.4-1v3.8h3.8" transform="translate(-0.8 -0.8)"/><path class="a" d="M166.8,42.5a7.51,7.51,0,0,0-.9-3.7,3.43,3.43,0,0,0-3.1-1.9,3.26,3.26,0,0,0-3.1,1.9,7.24,7.24,0,0,0-.9,3.7,7.51,7.51,0,0,0,.9,3.7,3.55,3.55,0,0,0,3.1,1.9,3.47,3.47,0,0,0,3.1-1.9,7,7,0,0,0,.9-3.7m3.6-.1a9,9,0,0,1-2,5.9,7.19,7.19,0,0,1-5.7,2.4,6.8,6.8,0,0,1-5.4-2.3,8.42,8.42,0,0,1-2-5.7,8.35,8.35,0,0,1,2.1-5.9,7.38,7.38,0,0,1,5.6-2.3,7.16,7.16,0,0,1,5.5,2.3,8.42,8.42,0,0,1,1.9,5.6" transform="translate(-0.8 -0.8)"/><path class="a" d="M181.5,37.8a3.75,3.75,0,0,0-1.1-.1,3.37,3.37,0,0,0-2.8,1.4,5,5,0,0,0-.9,3.1v8.1h-3.4V39.7c0-1.8,0-3.4-.1-4.9h3l.1,3h.1a5.27,5.27,0,0,1,1.7-2.4,3.93,3.93,0,0,1,2.5-.8,2.77,2.77,0,0,1,.9.1" transform="translate(-0.8 -0.8)"/><path class="a" d="M193.6,40.9a4.41,4.41,0,0,0-.7-2.6,2.87,2.87,0,0,0-2.7-1.4,3.32,3.32,0,0,0-2.7,1.4,4.65,4.65,0,0,0-1,2.7h7.1Zm3.3.9a8.08,8.08,0,0,1-.1,1.6H186.5a4.26,4.26,0,0,0,1.5,3.5,5.33,5.33,0,0,0,3.4,1.1,11.58,11.58,0,0,0,4.2-.7l.5,2.4a13.76,13.76,0,0,1-5.2,1,7.31,7.31,0,0,1-5.6-2.1,7.7,7.7,0,0,1-2.1-5.7,8.63,8.63,0,0,1,1.9-5.8,6.38,6.38,0,0,1,5.4-2.5,5.83,5.83,0,0,1,5.1,2.5,8.42,8.42,0,0,1,1.3,4.7" transform="translate(-0.8 -0.8)"/></svg>