<?xml version="1.0" encoding="UTF-8" standalone="no" ?>
<!DOCTYPE svg PUBLIC "-//W3C//DTD SVG 1.1//EN" "http://www.w3.org/Graphics/SVG/1.1/DTD/svg11.dtd">
<svg xmlns="http://www.w3.org/2000/svg" xmlns:xlink="http://www.w3.org/1999/xlink" version="1.1" width="1280" height="1024" viewBox="0 0 1280 1024" xml:space="preserve">
<desc>Created with Fabric.js 3.6.3</desc>
<defs>
</defs>
<g transform="matrix(1.9662058371735789 0 0 1.9662058371735789 640.2456813819576 512.1966205837173)" id="background-logo"  >
<rect style="stroke: none; stroke-width: 1; stroke-dasharray: none; stroke-linecap: butt; stroke-dashoffset: 0; stroke-linejoin: miter; stroke-miterlimit: 4; fill: rgb(241,241,241); fill-rule: nonzero; opacity: 1;"  paint-order="stroke"  x="-325" y="-260" rx="0" ry="0" width="650" height="520" />
</g>
<g transform="matrix(1.9699870022450665 0 0 1.9699870022450665 640.2456813819575 447.6675995051128)" id="logo-logo"  >
<g style=""  paint-order="stroke"   >
		<g transform="matrix(0.12605370212641573 0 0 0.12605370212641573 64.20355794881823 60.46936780099884)"  >
<g style=""  paint-order="stroke"   >
		<g transform="matrix(1 0 0 1 0 0)"  >
<path style="stroke: none; stroke-width: 1; stroke-dasharray: none; stroke-linecap: butt; stroke-dashoffset: 0; stroke-linejoin: miter; stroke-miterlimit: 4; fill: rgb(188,31,48); fill-rule: nonzero; opacity: 1;"  paint-order="stroke"  transform=" translate(-100, -100)" d="M 200 100 A 100 100 0 0 1 100 200 A 100 100 0 0 1 0 100 A 100 100 0 0 1 100 0 A 100 100 0 0 1 200 100 Z" stroke-linecap="round" />
</g>
</g>
</g>
		<g transform="matrix(0.12418608902970482 0 0 0.12418608902970482 -64.92528544770494 60.18650320084896)"  >
<g style=""  paint-order="stroke"   >
		<g transform="matrix(1 0 0 1 0 0)"  >
<path style="stroke: none; stroke-width: 1; stroke-dasharray: none; stroke-linecap: butt; stroke-dashoffset: 0; stroke-linejoin: miter; stroke-miterlimit: 4; fill: rgb(188,31,48); fill-rule: nonzero; opacity: 1;"  paint-order="stroke"  transform=" translate(-100, -100)" d="M 200 100 A 100 100 0 0 1 100 200 A 100 100 0 0 1 0 100 A 100 100 0 0 1 100 0 A 100 100 0 0 1 200 100 Z" stroke-linecap="round" />
</g>
</g>
</g>
		<g transform="matrix(0.21701056848634656 0 0 -0.2170105684863466 -0.6969165007992046 60.35131326437218)"  >
<path style="stroke: none; stroke-width: 1; stroke-dasharray: none; stroke-linecap: butt; stroke-dashoffset: 0; stroke-linejoin: miter; stroke-miterlimit: 4; fill: rgb(26,21,21); fill-rule: nonzero; opacity: 1;"  paint-order="stroke"  transform=" translate(-1686.79, -970.3928273493639)" d="m 1982 742.969 c -125.6 0 -227.42 101.82 -227.42 227.422 c 0 125.609 101.82 227.419 227.42 227.419 c 125.6 0 227.42 -101.81 227.42 -227.419 c 0 -125.602 -101.82 -227.422 -227.42 -227.422 z m -590.42 0 c -125.6 0 -227.42 101.82 -227.42 227.422 c 0 125.609 101.82 227.419 227.42 227.419 c 125.6 0 227.42 -101.81 227.42 -227.419 c 0 -125.602 -101.82 -227.422 -227.42 -227.422 z m 845.46 450.471 h -93.67 c -34.46 25.07 -74.79 42.5 -118.6 49.2 c -52.65 8.07 -102.86 0.88 -147.34 -17.39 h -0.69 c -43.09 -19.27 -112.01 -31.81 -189.95 -31.81 c -77.93 0 -146.85 12.54 -189.95 31.81 h -0.69 c -44.48 18.27 -107.81 25.46 -160.47 17.39 c -43.8 -6.7 -84.13 -24.13 -118.59 -49.2 h -80.55 c -21.13 0 -38.41 -17.28 -38.41 -38.41 V 1076 c 0 -17.05 11.33 -31.43 26.78 -36.41 c -3.5 -13.49 -6.12 -27.31 -7.5 -41.469 c -16.74 -171.383 123.67 -314.582 294.17 -302.551 c 118.16 8.34 219.08 93.86 247.43 208.871 c 10.63 43.149 10.29 84.68 1.94 123.269 c -3.55 16.44 9.03 31.9 25.84 31.9 c 16.82 0 29.39 -15.46 25.84 -31.9 c -8.35 -38.589 -8.69 -80.12 1.94 -123.269 C 1742.92 789.43 1843.85 703.91 1962 695.57 c 170.5 -12.031 310.91 131.168 294.17 302.551 c -1.38 14.159 -4 27.979 -7.5 41.469 c 15.45 4.98 26.78 19.36 26.78 36.41 v 79.03 c 0 21.13 -17.28 38.41 -38.41 38.41" stroke-linecap="round" />
</g>
		<g transform="matrix(0.21701056848634656 0 0 -0.2170105684863466 0 -32.41258091761625)"  >
<path style="stroke: none; stroke-width: 1; stroke-dasharray: none; stroke-linecap: butt; stroke-dashoffset: 0; stroke-linejoin: miter; stroke-miterlimit: 4; fill: rgb(26,21,21); fill-rule: nonzero; opacity: 1;"  paint-order="stroke"  transform=" translate(-1690.0014403720527, -1397.8553920945678)" d="m 2335.55 1522.44 c 0 0 102.14 43.84 57.06 227.52 c 0 0 -183.19 -150.88 -759.19 26.25 c -507.77 156.14 -767.369 -431.45 -691.111 -739.9 c 6.226 -25.19 29.039 -42.728 54.988 -42.728 v 0 c 33.743 0 60.103 29.278 56.243 62.808 c -11.28 98.02 -6.94 289.08 165.04 414.08 c 123.92 90.07 225.34 -162.55 551.33 -93.15 c 483.13 102.86 556.45 -214.36 566.94 -337.25 c 2.26 -26.39 24.64 -46.488 51.12 -46.488 c 25.78 0 47.53 19.048 50.9 44.608 c 15.19 115.15 40.32 417.96 -103.32 484.25" stroke-linecap="round" />
</g>
		<g transform="matrix(0.21701056848634656 0 0 -0.2170105684863466 -64.76045863424213 60.35134281909063)"  >
<path style="stroke: none; stroke-width: 1; stroke-dasharray: none; stroke-linecap: butt; stroke-dashoffset: 0; stroke-linejoin: miter; stroke-miterlimit: 4; fill: rgb(188,31,48); fill-rule: nonzero; opacity: 1;"  paint-order="stroke"  transform=" translate(-1391.580681024028, -970.3926911591373)" d="m 1400.63 1047.64 c -3.09 -7.45 -7.76 -13.71 -13.34 -18.83 l 42.56 -102.759 c 7.57 0.328 15.31 -0.789 22.76 -3.879 c 27.33 -11.32 40.35 -42.762 29.03 -70.082 c -11.32 -27.32 -42.75 -40.352 -70.08 -29.031 c -27.33 11.32 -40.35 42.761 -29.04 70.082 c 3.09 7.461 7.77 13.73 13.37 18.847 l -42.57 102.742 c -7.57 -0.33 -15.31 0.8 -22.77 3.89 c -27.32 11.31 -40.34 42.75 -29.02 70.07 c 11.31 27.33 42.75 40.35 70.07 29.03 c 27.33 -11.32 40.35 -42.75 29.03 -70.08 z m 138.29 -57.281 c -11.32 -27.32 -42.76 -40.339 -70.09 -29.019 c -7.45 3.09 -13.72 7.762 -18.84 13.351 l -9.36 -3.882 l -14.06 33.961 l 9.35 3.88 c -0.34 7.57 0.79 15.31 3.88 22.77 c 11.32 27.32 42.75 40.34 70.08 29.02 c 27.34 -11.32 40.36 -42.75 29.04 -70.081 z m -294.67 -39.937 c 11.32 27.316 42.75 40.348 70.08 29.027 c 7.45 -3.09 13.72 -7.769 18.84 -13.359 l 9.36 3.879 l 14.08 -33.969 l -9.37 -3.879 c 0.33 -7.57 -0.8 -15.301 -3.89 -22.75 c -11.31 -27.332 -42.75 -40.351 -70.07 -29.031 c -27.33 11.32 -40.35 42.762 -29.03 70.082 z M 1199.39 1050 c -43.97 -106.141 6.44 -227.828 112.58 -271.801 c 106.15 -43.969 227.84 6.442 271.8 112.582 c 43.97 106.149 -6.43 227.839 -112.58 271.809 c -106.15 43.96 -227.84 -6.44 -271.8 -112.59" stroke-linecap="round" />
</g>
		<g transform="matrix(0.21701056848634656 0 0 -0.2170105684863466 -64.77049647228455 60.35134421186211)"  >
<path style="stroke: none; stroke-width: 1; stroke-dasharray: none; stroke-linecap: butt; stroke-dashoffset: 0; stroke-linejoin: miter; stroke-miterlimit: 4; fill: rgb(26,21,21); fill-rule: nonzero; opacity: 1;"  paint-order="stroke"  transform=" translate(-1391.5344259586066, -970.3926847411481)" d="m 1337.27 1067.53 c -1.88 -4.53 -1.88 -9.53 0.01 -14.06 l 16.04 -38.74 l 42.57 -102.742 l 16.04 -38.738 c 3.88 -9.359 14.66 -13.82 24.02 -9.941 c 9.08 3.75 13.71 14.929 9.94 24.011 l -16.04 38.731 l -42.56 102.759 l -16.04 38.72 c -3.89 9.37 -14.65 13.82 -24.03 9.95 c -4.54 -1.88 -8.07 -5.41 -9.95 -9.95" stroke-linecap="round" />
</g>
		<g transform="matrix(0.21701056848634656 0 0 -0.2170105684863466 -49.20120859801233 54.26282095160201)"  >
<path style="stroke: none; stroke-width: 1; stroke-dasharray: none; stroke-linecap: butt; stroke-dashoffset: 0; stroke-linejoin: miter; stroke-miterlimit: 4; fill: rgb(26,21,21); fill-rule: nonzero; opacity: 1;"  paint-order="stroke"  transform=" translate(-1463.278802201977, -998.4490291981377)" d="m 1435.92 1008.65 l -9.35 -3.88 l 14.06 -33.961 l 9.36 3.882 l 38.74 16.039 c 9.08 3.75 13.71 14.94 9.94 24.01 c -3.87 9.36 -14.65 13.83 -24.01 9.95 l -38.74 -16.04" stroke-linecap="round" />
</g>
		<g transform="matrix(0.21701056848634656 0 0 -0.2170105684863466 -80.32758829081101 66.44132373444472)"  >
<path style="stroke: none; stroke-width: 1; stroke-dasharray: none; stroke-linecap: butt; stroke-dashoffset: 0; stroke-linejoin: miter; stroke-miterlimit: 4; fill: rgb(26,21,21); fill-rule: nonzero; opacity: 1;"  paint-order="stroke"  transform=" translate(-1319.84625, -942.3296297247016)" d="m 1347.24 932.121 l 9.37 3.879 l -14.08 33.969 l -9.36 -3.879 l -38.73 -16.039 c -4.54 -1.871 -8.07 -5.41 -9.94 -9.949 c -1.89 -4.532 -1.89 -9.532 0 -14.063 c 3.88 -9.367 14.65 -13.828 24.02 -9.949 l 38.72 16.031" stroke-linecap="round" />
</g>
		<g transform="matrix(0.21701056848634656 0 0 -0.2170105684863466 63.36692121146666 60.35133001431177)"  >
<path style="stroke: none; stroke-width: 1; stroke-dasharray: none; stroke-linecap: butt; stroke-dashoffset: 0; stroke-linejoin: miter; stroke-miterlimit: 4; fill: rgb(188,31,48); fill-rule: nonzero; opacity: 1;"  paint-order="stroke"  transform=" translate(-1982.0006810240282, -970.392750164461)" d="m 2043.02 1018.62 c -7.45 -3.09 -15.18 -4.22 -22.75 -3.89 l -42.56 -102.75 c 5.58 -5.121 10.26 -11.39 13.35 -18.839 c 11.32 -27.332 -1.71 -58.77 -29.03 -70.09 c -27.32 -11.313 -58.76 1.711 -70.08 29.039 c -11.32 27.332 1.7 58.762 29.03 70.082 c 7.45 3.09 15.19 4.219 22.77 3.887 l 42.55 102.741 c -5.59 5.12 -10.27 11.39 -13.35 18.85 c -11.32 27.32 1.7 58.76 29.02 70.07 c 27.33 11.32 58.76 -1.7 70.08 -29.02 c 11.32 -27.33 -1.7 -58.76 -29.03 -70.08 z m 57.29 -138.288 c -27.33 -11.32 -58.76 1.699 -70.08 29.027 c -3.09 7.461 -4.22 15.2 -3.89 22.77 l -9.36 3.871 l 14.08 33.961 l 9.34 -3.871 c 5.12 5.59 11.39 10.269 18.85 13.359 c 27.32 11.321 58.76 -1.699 70.08 -29.027 c 11.32 -27.344 -1.7 -58.774 -29.02 -70.09 z M 1863.7 1060.45 c 27.32 11.32 58.76 -1.71 70.08 -29.03 c 3.09 -7.45 4.21 -15.19 3.88 -22.77 l 9.36 -3.88 l -14.07 -33.969 l -9.36 3.89 c -5.12 -5.589 -11.39 -10.261 -18.84 -13.351 c -27.32 -11.309 -58.76 1.711 -70.08 29.031 c -11.32 27.319 1.7 58.759 29.03 70.079 z m 38.69 102.14 c -106.14 -43.97 -156.55 -165.66 -112.58 -271.801 c 43.96 -106.148 165.66 -156.559 271.8 -112.59 c 106.15 43.973 156.55 165.66 112.58 271.801 c -43.96 106.15 -165.65 156.55 -271.8 112.59" stroke-linecap="round" />
</g>
		<g transform="matrix(0.21701056848634656 0 0 -0.2170105684863466 63.36800570784561 60.34150728316558)"  >
<path style="stroke: none; stroke-width: 1; stroke-dasharray: none; stroke-linecap: butt; stroke-dashoffset: 0; stroke-linejoin: miter; stroke-miterlimit: 4; fill: rgb(26,21,21); fill-rule: nonzero; opacity: 1;"  paint-order="stroke"  transform=" translate(-1982.005678459805, -970.438014002138)" d="m 2012.29 1077.49 c -4.54 -1.88 -8.07 -5.42 -9.95 -9.96 l -16.04 -38.73 l -42.55 -102.741 l -16.05 -38.75 c -3.87 -9.36 0.59 -20.129 9.95 -24.008 c 9.07 -3.77 20.26 0.871 24.01 9.937 l 16.05 38.742 l 42.56 102.75 l 16.04 38.72 c 3.87 9.38 -0.58 20.14 -9.95 24.03 c -4.54 1.88 -9.53 1.88 -14.07 0.01" stroke-linecap="round" />
</g>
		<g transform="matrix(0.21701056848634656 0 0 -0.2170105684863466 78.93346999016762 66.43417129523482)"  >
<path style="stroke: none; stroke-width: 1; stroke-dasharray: none; stroke-linecap: butt; stroke-dashoffset: 0; stroke-linejoin: miter; stroke-miterlimit: 4; fill: rgb(26,21,21); fill-rule: nonzero; opacity: 1;"  paint-order="stroke"  transform=" translate(-2053.7324353218855, -942.3625886688667)" d="m 2040.4 966.09 l -9.34 3.871 l -14.08 -33.961 l 9.36 -3.871 l 38.74 -16.047 c 9.07 -3.773 20.26 0.867 24.01 9.949 c 3.87 9.348 -0.59 20.129 -9.95 24.008 l -38.74 16.051" stroke-linecap="round" />
</g>
		<g transform="matrix(0.21701056848634656 0 0 -0.2170105684863466 47.800560145593465 54.2615520809922)"  >
<path style="stroke: none; stroke-width: 1; stroke-dasharray: none; stroke-linecap: butt; stroke-dashoffset: 0; stroke-linejoin: miter; stroke-miterlimit: 4; fill: rgb(26,21,21); fill-rule: nonzero; opacity: 1;"  paint-order="stroke"  transform=" translate(-1910.2697917201158, -998.4548762433703)" d="m 1923.59 974.691 l 9.36 -3.89 l 14.07 33.969 l -9.36 3.88 l -38.73 16.05 c -4.54 1.88 -9.53 1.88 -14.06 -0.01 c -4.55 -1.87 -8.08 -5.4 -9.95 -9.94 c -3.88 -9.37 0.58 -20.141 9.95 -24.02 l 38.72 -16.039" stroke-linecap="round" />
</g>
</g>
</g>
<g transform="matrix(1.9699870022450665 0 0 1.9699870022450665 638.8930435869416 758.2604912981335)" id="text-logo-path"  >
<path style="stroke: rgb(188,31,48); stroke-width: 3; stroke-dasharray: none; stroke-linecap: butt; stroke-dashoffset: 0; stroke-linejoin: miter; stroke-miterlimit: 4; fill: rgb(188,31,48); fill-rule: nonzero; opacity: 1;"  paint-order="stroke"  transform=" translate(-129.74, 14.19)" d="M 11.8 0.28 L 11.66 0.28 Q 10.72 0.28 9.64 0.14 Q 8.56 0 7.55 -0.21 Q 6.54 -0.41 5.69 -0.68 Q 4.84 -0.94 4.36 -1.22 L 4.36 -1.22 Q 3.47 -1.74 2.95 -2.73 Q 2.43 -3.72 2.43 -4.66 L 2.43 -4.66 Q 2.43 -5.55 2.86 -6.05 Q 3.28 -6.54 3.81 -6.54 L 3.81 -6.54 Q 4.22 -6.54 5.69 -5.35 L 5.69 -5.35 Q 7.05 -4.18 8.43 -3.61 Q 9.82 -3.05 11.89 -3.05 L 11.89 -3.05 Q 14 -3.05 15.27 -4.13 Q 16.55 -5.21 16.55 -7.23 L 16.55 -7.23 Q 16.55 -8.22 16.19 -8.93 Q 15.83 -9.64 15.04 -10.25 Q 14.25 -10.85 13 -11.51 Q 11.75 -12.16 9.91 -13.01 L 9.91 -13.01 Q 8.47 -13.72 7.19 -14.46 Q 5.92 -15.19 4.96 -16.14 Q 3.99 -17.1 3.45 -18.39 Q 2.91 -19.69 2.91 -21.48 L 2.91 -21.48 Q 2.91 -24.67 5.45 -26.67 Q 7.99 -28.66 12.83 -28.66 L 12.83 -28.66 Q 15.79 -28.66 17.76 -27.81 L 17.76 -27.81 Q 18.7 -27.4 19.31 -26.44 Q 19.92 -25.47 19.92 -24.67 L 19.92 -24.67 Q 19.92 -22.7 18.61 -22.7 L 18.61 -22.7 Q 18.29 -22.7 16.18 -24.12 L 16.18 -24.12 Q 14.02 -25.52 11.89 -25.52 L 11.89 -25.52 Q 9.78 -25.52 8.46 -24.53 Q 7.14 -23.55 7.14 -21.76 L 7.14 -21.76 Q 7.14 -20.86 7.45 -20.21 Q 7.76 -19.55 8.48 -18.94 Q 9.2 -18.34 10.45 -17.67 Q 11.7 -17.01 13.59 -16.18 L 13.59 -16.18 Q 15.1 -15.51 16.43 -14.76 Q 17.76 -14 18.8 -13.01 Q 19.83 -12.03 20.45 -10.69 Q 21.07 -9.36 21.07 -7.53 L 21.07 -7.53 Q 21.07 -6.68 20.87 -5.9 Q 20.68 -5.12 20.36 -4.36 L 20.36 -4.36 Q 19.19 -1.97 16.76 -0.85 Q 14.34 0.28 11.8 0.28 L 11.8 0.28 Z M 57.65 -26 L 57.65 -26 Q 57.65 -24.12 56.48 -24.12 L 56.48 -24.12 Q 55.95 -24.12 54.78 -24.44 L 54.78 -24.44 Q 53.61 -24.76 52.32 -24.76 L 52.32 -24.76 Q 49.59 -24.76 49.13 -22.74 L 49.13 -22.74 Q 48.77 -20.95 48.77 -12.74 L 48.77 -12.74 L 48.68 -8.79 L 48.68 -6.77 Q 48.68 -5.55 48.84 -4.96 Q 49 -4.36 49.32 -3.49 L 49.32 -3.49 Q 49.59 -2.64 49.62 -2.11 L 49.62 -2.11 Q 49.62 -1.08 48.74 -0.54 Q 47.87 0 46.36 0 L 46.36 0 L 45.85 0 Q 44.77 0 43.9 -0.54 Q 43.03 -1.08 43.03 -1.88 L 43.03 -1.88 Q 43.03 -2.78 43.26 -3.33 L 43.26 -3.33 L 43.58 -4.13 Q 43.76 -4.45 44.06 -5.46 L 44.06 -5.46 Q 44.29 -6.4 44.29 -8.7 L 44.29 -8.7 L 44.29 -9.25 Q 44.34 -9.57 44.34 -9.83 Q 44.34 -10.1 44.34 -10.44 L 44.34 -10.44 L 44.34 -11.57 L 44.43 -16.11 Q 44.43 -21.76 44.06 -23.13 L 44.06 -23.13 Q 43.65 -24.74 41.56 -24.72 L 41.56 -24.72 Q 40.39 -24.72 38.74 -24.17 L 38.74 -24.17 Q 37.04 -23.64 36.72 -23.64 L 36.72 -23.64 Q 35.73 -23.64 35.73 -25.7 L 35.73 -25.7 Q 35.73 -27.77 37.52 -28.02 L 37.52 -28.02 Q 39.91 -28.43 49.13 -28.43 L 49.13 -28.43 L 54.73 -28.43 Q 56.34 -28.43 56.99 -27.83 Q 57.65 -27.22 57.65 -26 Z M 88.22 -26.94 L 88.22 -26.94 Q 89.11 -28.25 91.31 -28.25 L 91.31 -28.25 Q 93.52 -28.25 93.52 -27.17 L 93.52 -27.17 Q 93.52 -26.51 92.35 -24.85 L 92.35 -24.85 Q 91.18 -23.2 89.92 -20.59 L 89.92 -20.59 Q 87.99 -16.64 86.87 -14.42 Q 85.76 -12.21 85.22 -10.73 Q 84.68 -9.25 84.57 -8.01 Q 84.45 -6.77 84.45 -4.8 L 84.45 -4.8 Q 84.45 -4.13 84.73 -3.14 L 84.73 -3.14 Q 85 -2.16 85.03 -1.84 L 85.03 -1.84 Q 85.03 0.23 81.93 0.23 L 81.93 0.23 Q 79.06 0.23 79.06 -1.93 L 79.06 -1.93 Q 79.06 -2.2 79.43 -3.33 L 79.43 -3.33 Q 79.61 -3.86 79.78 -4.28 Q 79.96 -4.7 80.07 -5.24 Q 80.18 -5.78 80.25 -6.53 Q 80.32 -7.27 80.32 -8.42 L 80.32 -8.42 Q 80.32 -9.55 80.18 -10.34 Q 80.05 -11.13 79.65 -12.09 Q 79.24 -13.06 78.46 -14.47 Q 77.68 -15.88 76.42 -18.2 L 76.42 -18.2 Q 75.2 -20.54 74.4 -21.91 Q 73.6 -23.27 73.32 -23.64 L 73.32 -23.64 Q 71.4 -26.14 71.4 -26.74 L 71.4 -26.74 Q 71.4 -27.77 74.01 -27.77 L 74.01 -27.77 Q 76.6 -27.77 77.45 -26.46 L 77.45 -26.46 Q 77.64 -26.09 77.82 -25.15 L 77.82 -25.15 Q 77.96 -24.58 78.65 -23.05 Q 79.34 -21.53 80.18 -19.89 Q 81.03 -18.24 81.78 -16.97 Q 82.53 -15.7 82.71 -15.7 L 82.71 -15.7 Q 83.56 -15.7 86.43 -21.57 L 86.43 -21.57 Q 87.32 -23.36 87.64 -24.95 L 87.64 -24.95 Q 88.08 -26.67 88.22 -26.94 Z M 108.96 -2.02 L 108.96 -2.02 Q 108.96 -2.29 109.24 -3.05 L 109.24 -3.05 Q 109.7 -4.27 109.78 -5.3 Q 109.86 -6.33 109.86 -7.67 L 109.86 -7.67 L 109.9 -10.72 L 109.9 -17.21 Q 109.9 -19.6 109.9 -20.96 Q 109.9 -22.33 109.86 -22.7 L 109.86 -22.7 Q 109.77 -23.11 109.65 -23.59 Q 109.54 -24.07 109.28 -24.62 L 109.28 -24.62 Q 109.05 -25.2 108.94 -25.67 Q 108.83 -26.14 108.83 -26.55 L 108.83 -26.55 Q 108.83 -27.36 109.57 -27.85 Q 110.32 -28.34 111.51 -28.34 L 111.51 -28.34 L 111.97 -28.34 Q 113.53 -28.34 114.54 -27.76 Q 115.55 -27.17 115.55 -26 L 115.55 -26 Q 115.55 -25.77 115.46 -25.46 Q 115.37 -25.15 115.25 -24.76 L 115.25 -24.76 Q 115.02 -24.05 114.7 -22.97 L 114.7 -22.97 Q 114.47 -21.94 114.47 -13.95 L 114.47 -13.95 Q 114.47 -5.88 114.88 -4.89 L 114.88 -4.89 Q 115.25 -3.81 116.21 -3.57 Q 117.18 -3.33 119.36 -3.33 L 119.36 -3.33 Q 120.44 -3.33 121.16 -3.43 Q 121.88 -3.53 122.47 -3.67 Q 123.05 -3.81 123.52 -4.02 Q 123.99 -4.22 124.52 -4.43 L 124.52 -4.43 Q 125.6 -4.84 126.06 -4.84 L 126.06 -4.84 Q 127.41 -4.84 127.44 -3.01 L 127.44 -3.01 L 127.44 -2.55 Q 127.44 -0.99 126.5 -0.47 Q 125.56 0.05 123.05 0.05 L 123.05 0.05 L 118.97 0.05 L 118.46 0 L 117.94 0 Q 111.83 0 110.48 -0.32 L 110.48 -0.32 Q 108.96 -0.62 108.96 -2.02 Z M 147.47 -0.05 L 147.47 -0.05 L 146.3 -0.05 Q 145.98 -0.05 145.38 -0.11 Q 144.79 -0.18 144.2 -0.38 Q 143.62 -0.57 143.19 -0.9 Q 142.77 -1.22 142.77 -1.7 L 142.77 -1.7 Q 142.77 -2.32 143.43 -3.63 L 143.43 -3.63 Q 144.19 -5.03 144.37 -6.59 L 144.37 -6.59 Q 144.47 -7.44 144.53 -9.41 Q 144.6 -11.38 144.6 -14.57 L 144.6 -14.57 Q 144.6 -17.76 144.56 -19.69 Q 144.51 -21.62 144.42 -22.33 L 144.42 -22.33 Q 144.24 -23.73 143.48 -24.81 L 143.48 -24.81 Q 142.77 -25.89 142.77 -26.6 L 142.77 -26.6 Q 142.77 -27.17 143.26 -27.49 Q 143.75 -27.81 144.41 -28.01 Q 145.06 -28.2 145.75 -28.27 Q 146.44 -28.34 146.81 -28.34 L 146.81 -28.34 L 147.61 -28.34 Q 149.06 -28.34 149.86 -27.81 L 149.86 -27.81 Q 150.57 -27.24 150.57 -26.69 L 150.57 -26.69 L 150.57 -26.41 Q 150.57 -26.14 150.04 -25.01 L 150.04 -25.01 Q 149.47 -24.03 149.35 -22.28 L 149.35 -22.28 Q 149.26 -21.43 149.19 -19.2 Q 149.12 -16.96 149.12 -13.31 L 149.12 -13.31 Q 149.12 -9.64 149.15 -7.62 Q 149.17 -5.6 149.22 -5.21 L 149.22 -5.21 Q 149.35 -4.41 149.9 -3.33 L 149.9 -3.33 Q 150.48 -2.29 150.48 -1.61 L 150.48 -1.61 Q 150.48 -0.94 149.58 -0.49 Q 148.69 -0.05 147.47 -0.05 Z M 175.7 -24.03 L 175.7 -24.03 Q 171.66 -21.69 171.66 -13.91 L 171.66 -13.91 Q 171.66 -11.66 172.08 -9.68 Q 172.51 -7.71 173.52 -6.28 Q 174.53 -4.84 176.15 -4.02 Q 177.76 -3.19 180.22 -3.19 L 180.22 -3.19 Q 182.56 -3.19 186.1 -5.21 L 186.1 -5.21 Q 187.04 -5.78 187.63 -5.78 L 187.63 -5.78 Q 188.48 -5.78 188.48 -4.66 L 188.48 -4.66 Q 188.48 -4.08 187.78 -3.1 Q 187.08 -2.11 185.84 -1.4 L 185.84 -1.4 Q 182.93 0.25 179.28 0.23 L 179.28 0.23 L 178.66 0.23 Q 175.7 0.23 173.5 -0.85 Q 171.29 -1.93 169.84 -3.76 Q 168.38 -5.6 167.64 -8.02 Q 166.91 -10.44 166.91 -13.1 L 166.91 -13.1 L 166.91 -13.77 Q 166.91 -16.87 167.71 -19.55 Q 168.52 -22.24 170.16 -24.21 Q 171.8 -26.19 174.29 -27.33 Q 176.78 -28.48 180.17 -28.48 L 180.17 -28.48 Q 185.68 -28.48 187.22 -25.89 L 187.22 -25.89 Q 187.84 -24.81 187.82 -23.96 L 187.82 -23.96 Q 187.82 -22.21 186.6 -22.24 L 186.6 -22.24 Q 186.19 -22.24 184.86 -23.13 L 184.86 -23.13 Q 183.5 -24.07 182.14 -24.54 Q 180.77 -25.01 179.1 -25.01 L 179.1 -25.01 Q 177.4 -25.01 175.7 -24.03 Z M 204.82 -2.02 L 204.82 -2.02 Q 204.82 -2.29 205.1 -3.05 L 205.1 -3.05 Q 205.56 -4.27 205.64 -5.3 Q 205.72 -6.33 205.72 -7.67 L 205.72 -7.67 L 205.76 -10.72 L 205.76 -17.21 Q 205.76 -19.6 205.76 -20.96 Q 205.76 -22.33 205.72 -22.7 L 205.72 -22.7 Q 205.63 -23.11 205.51 -23.59 Q 205.4 -24.07 205.14 -24.62 L 205.14 -24.62 Q 204.91 -25.2 204.8 -25.67 Q 204.68 -26.14 204.68 -26.55 L 204.68 -26.55 Q 204.68 -27.36 205.43 -27.85 Q 206.18 -28.34 207.37 -28.34 L 207.37 -28.34 L 207.83 -28.34 Q 209.39 -28.34 210.4 -27.76 Q 211.41 -27.17 211.41 -26 L 211.41 -26 Q 211.41 -25.77 211.32 -25.46 Q 211.22 -25.15 211.11 -24.76 L 211.11 -24.76 Q 210.88 -24.05 210.56 -22.97 L 210.56 -22.97 Q 210.33 -21.94 210.33 -13.95 L 210.33 -13.95 Q 210.33 -5.88 210.74 -4.89 L 210.74 -4.89 Q 211.11 -3.81 212.07 -3.57 Q 213.04 -3.33 215.22 -3.33 L 215.22 -3.33 Q 216.3 -3.33 217.02 -3.43 Q 217.74 -3.53 218.33 -3.67 Q 218.91 -3.81 219.38 -4.02 Q 219.85 -4.22 220.38 -4.43 L 220.38 -4.43 Q 221.46 -4.84 221.92 -4.84 L 221.92 -4.84 Q 223.27 -4.84 223.3 -3.01 L 223.3 -3.01 L 223.3 -2.55 Q 223.3 -0.99 222.35 -0.47 Q 221.41 0.05 218.91 0.05 L 218.91 0.05 L 214.83 0.05 L 214.32 0 L 213.79 0 Q 207.69 0 206.34 -0.32 L 206.34 -0.32 Q 204.82 -0.62 204.82 -2.02 Z M 248.72 -16.45 L 248.72 -16.45 L 251.73 -16.96 Q 253.89 -16.96 253.91 -14.99 L 253.91 -14.99 Q 253.91 -13.82 253.42 -13.12 Q 252.92 -12.42 252.21 -12.42 L 252.21 -12.42 Q 251.84 -12.42 251.37 -12.48 Q 250.9 -12.55 250.24 -12.65 L 250.24 -12.65 Q 249.57 -12.78 249.08 -12.83 Q 248.59 -12.87 248.22 -12.87 L 248.22 -12.87 Q 246.96 -12.87 246.15 -12.74 Q 245.35 -12.6 244.9 -12.15 Q 244.46 -11.7 244.29 -10.88 Q 244.13 -10.05 244.13 -8.7 L 244.13 -8.7 Q 244.13 -5.92 244.86 -4.58 Q 245.58 -3.24 247.78 -3.24 L 247.78 -3.24 Q 250.74 -3.24 253.02 -3.67 L 253.02 -3.67 Q 255.13 -4.08 255.59 -4.08 L 255.59 -4.08 Q 257.03 -4.08 257.05 -2.96 L 257.05 -2.96 L 257.05 -2.5 Q 257.05 -0.76 254.9 -0.32 L 254.9 -0.32 Q 253.38 0 247.37 0 L 247.37 0 L 246.61 0 Q 241.72 0 240.19 -0.46 L 240.19 -0.46 Q 238.58 -0.87 238.58 -1.93 L 238.58 -1.93 L 238.58 -2.5 L 239.04 -4.18 Q 239.5 -5.88 239.52 -11.52 L 239.52 -11.52 L 239.84 -20.49 Q 239.84 -23.18 239.7 -23.78 L 239.7 -23.78 Q 239.66 -24.3 239.34 -25.15 L 239.34 -25.15 Q 239.2 -25.57 239.1 -25.94 Q 238.99 -26.32 238.99 -26.69 L 238.99 -26.69 Q 238.99 -28.43 248.68 -28.43 L 248.68 -28.43 L 253.15 -28.43 Q 256.43 -28.43 256.43 -26.19 L 256.43 -26.19 Q 256.43 -25.47 255.99 -25.09 Q 255.54 -24.72 254.9 -24.72 L 254.9 -24.72 Q 254.53 -24.72 253.93 -24.76 Q 253.34 -24.81 252.44 -24.9 L 252.44 -24.9 Q 250.7 -25.04 248.54 -25.06 L 248.54 -25.06 Q 247.46 -25.06 246.72 -24.8 Q 245.97 -24.53 245.48 -23.86 Q 244.98 -23.18 244.74 -22.04 Q 244.5 -20.91 244.5 -19.19 L 244.5 -19.19 Q 244.5 -17.67 245.4 -17.06 Q 246.29 -16.45 248.72 -16.45 Z" stroke-linecap="round" />
</g>
<g transform="matrix(1.9699870022450665 0 0 1.9699870022450665 638.5804235792612 848.0799210795349)" id="tagline-b2e4f6b5-0885-46b9-8cb5-dfaaab4f35c5-logo-path"  >
<path style="stroke: none; stroke-width: 0; stroke-dasharray: none; stroke-linecap: butt; stroke-dashoffset: 0; stroke-linejoin: miter; stroke-miterlimit: 4; fill: rgb(26,21,21); fill-rule: nonzero; opacity: 1;"  paint-order="stroke"  transform=" translate(-43.8, 6.834999999999999)" d="M 6.95 -8.75 L 6.95 -8.75 L 8.54 -9.02 Q 9.69 -9.02 9.7 -7.97 L 9.7 -7.97 Q 9.7 -7.35 9.44 -6.98 Q 9.18 -6.6 8.8 -6.6 L 8.8 -6.6 Q 8.61 -6.6 8.36 -6.64 Q 8.11 -6.68 7.75 -6.73 L 7.75 -6.73 Q 7.4 -6.8 7.14 -6.82 Q 6.87 -6.85 6.68 -6.85 L 6.68 -6.85 Q 6.01 -6.85 5.58 -6.77 Q 5.15 -6.7 4.91 -6.46 Q 4.68 -6.23 4.59 -5.79 Q 4.5 -5.35 4.5 -4.63 L 4.5 -4.63 Q 4.5 -3.15 4.89 -2.44 Q 5.27 -1.72 6.45 -1.72 L 6.45 -1.72 Q 8.02 -1.72 9.23 -1.95 L 9.23 -1.95 Q 10.35 -2.17 10.6 -2.17 L 10.6 -2.17 Q 11.36 -2.17 11.38 -1.57 L 11.38 -1.57 L 11.38 -1.33 Q 11.38 -0.4 10.23 -0.17 L 10.23 -0.17 Q 9.42 0 6.23 0 L 6.23 0 L 5.82 0 Q 3.22 0 2.4 -0.24 L 2.4 -0.24 Q 1.55 -0.46 1.55 -1.03 L 1.55 -1.03 L 1.55 -1.33 L 1.79 -2.22 Q 2.04 -3.13 2.05 -6.13 L 2.05 -6.13 L 2.22 -10.9 Q 2.22 -12.33 2.15 -12.65 L 2.15 -12.65 Q 2.12 -12.93 1.95 -13.38 L 1.95 -13.38 Q 1.88 -13.6 1.82 -13.8 Q 1.77 -14 1.77 -14.2 L 1.77 -14.2 Q 1.77 -15.12 6.92 -15.12 L 6.92 -15.12 L 9.3 -15.12 Q 11.05 -15.12 11.05 -13.93 L 11.05 -13.93 Q 11.05 -13.55 10.81 -13.35 Q 10.57 -13.15 10.23 -13.15 L 10.23 -13.15 Q 10.03 -13.15 9.72 -13.17 Q 9.4 -13.2 8.92 -13.24 L 8.92 -13.24 Q 8 -13.32 6.85 -13.33 L 6.85 -13.33 Q 6.27 -13.33 5.88 -13.19 Q 5.48 -13.05 5.22 -12.69 Q 4.96 -12.33 4.83 -11.72 Q 4.7 -11.12 4.7 -10.21 L 4.7 -10.21 Q 4.7 -9.4 5.18 -9.08 Q 5.65 -8.75 6.95 -8.75 Z M 13.92 -7.95 L 13.92 -7.95 Q 13.92 -8.59 14.21 -9.14 Q 14.5 -9.68 15.03 -10.06 Q 15.55 -10.45 16.27 -10.66 Q 16.99 -10.88 17.85 -10.88 L 17.85 -10.88 Q 18.2 -10.88 18.76 -10.84 Q 19.32 -10.8 19.85 -10.66 Q 20.37 -10.52 20.75 -10.21 Q 21.12 -9.9 21.12 -9.38 L 21.12 -9.38 Q 21.12 -8.47 20.54 -8.47 L 20.54 -8.47 Q 20.35 -8.47 19.45 -8.92 L 19.45 -8.92 Q 18.54 -9.35 17.75 -9.35 L 17.75 -9.35 Q 16.92 -9.35 16.51 -8.98 Q 16.1 -8.61 16.1 -8 L 16.1 -8 Q 16.1 -7.69 16.22 -7.5 Q 16.35 -7.3 16.63 -7.11 Q 16.92 -6.92 17.41 -6.73 Q 17.9 -6.53 18.64 -6.23 L 18.64 -6.23 Q 20.12 -5.63 20.88 -4.95 Q 21.64 -4.27 21.64 -2.95 L 21.64 -2.95 Q 21.64 -2.28 21.36 -1.72 Q 21.07 -1.15 20.54 -0.73 Q 20.02 -0.31 19.29 -0.07 Q 18.57 0.17 17.7 0.17 L 17.7 0.17 Q 14.77 0.17 14.05 -0.98 L 14.05 -0.98 Q 13.83 -1.35 13.82 -1.62 L 13.82 -1.62 Q 13.82 -2.55 14.39 -2.55 L 14.39 -2.55 Q 14.56 -2.55 15.67 -2 L 15.67 -2 Q 16.72 -1.4 17.59 -1.4 L 17.59 -1.4 Q 18.47 -1.4 18.96 -1.76 Q 19.45 -2.12 19.45 -2.77 L 19.45 -2.77 Q 19.45 -3.1 19.32 -3.34 Q 19.2 -3.58 18.9 -3.79 Q 18.59 -4 18.11 -4.21 Q 17.63 -4.42 16.89 -4.72 L 16.89 -4.72 Q 16.32 -4.94 15.78 -5.22 Q 15.25 -5.51 14.83 -5.87 Q 14.42 -6.23 14.17 -6.73 Q 13.92 -7.23 13.92 -7.95 Z M 28.02 -0.02 L 28.02 -0.02 L 27.62 -0.02 Q 26.05 -0.02 25.45 -1.23 Q 24.84 -2.43 24.84 -4.92 L 24.84 -4.92 Q 24.84 -7.37 24.57 -8.33 L 24.57 -8.33 Q 24.45 -8.7 24.02 -9.13 L 24.02 -9.13 Q 23.6 -9.56 23.6 -9.88 L 23.6 -9.88 L 23.6 -10.02 Q 23.6 -10.27 24.1 -10.62 L 24.1 -10.62 Q 24.34 -10.79 24.48 -10.88 Q 24.62 -10.97 24.69 -11.11 Q 24.77 -11.25 24.83 -11.47 Q 24.89 -11.69 25 -12.15 L 25 -12.15 Q 25.24 -13.05 25.51 -13.41 Q 25.77 -13.77 26.22 -13.77 L 26.22 -13.77 Q 26.67 -13.77 26.84 -13.51 Q 27.01 -13.24 27.22 -12.45 L 27.22 -12.45 Q 27.32 -12.05 27.4 -11.79 Q 27.49 -11.52 27.64 -11.35 Q 27.8 -11.17 28.05 -11.04 Q 28.3 -10.9 28.75 -10.75 L 28.75 -10.75 Q 29.63 -10.45 29.61 -10 L 29.61 -10 Q 29.61 -9.59 28.7 -9.25 L 28.7 -9.25 Q 27.82 -8.95 27.54 -8.45 L 27.54 -8.45 Q 27.09 -7.54 27.1 -5.22 L 27.1 -5.22 Q 27.1 -2.87 27.49 -2.4 L 27.49 -2.4 Q 27.89 -1.88 28.8 -1.75 L 28.8 -1.75 Q 29.7 -1.65 29.7 -1.07 L 29.7 -1.07 Q 29.7 -0.65 29.18 -0.34 Q 28.66 -0.02 28.02 -0.02 Z M 33.34 -1.29 L 33.58 -1.33 L 33.74 -1.33 Q 33.81 -1.31 34.19 -1.29 L 34.19 -1.29 Q 34.52 -1.29 34.75 -0.95 Q 34.99 -0.6 34.99 -0.1 L 34.99 -0.1 L 34.99 0.28 Q 34.94 1.45 33.63 1.45 L 33.63 1.45 L 33.48 1.45 Q 32.24 1.45 32.24 0.45 L 32.24 0.45 L 32.19 0.22 L 32.19 -0.12 Q 32.19 -0.6 32.44 -0.93 Q 32.69 -1.27 33.17 -1.27 L 33.17 -1.27 Q 33.26 -1.29 33.34 -1.29 L 33.34 -1.29 Z M 50.22 -10.23 L 50.22 -10.23 Q 50.22 -12.61 47.9 -12.6 L 47.9 -12.6 Q 47 -12.6 46.07 -11.83 L 46.07 -11.83 Q 44.8 -10.71 44.54 -10.71 L 44.54 -10.71 Q 43.97 -10.71 43.97 -11.62 L 43.97 -11.62 Q 43.97 -12.1 44.33 -12.59 Q 44.69 -13.07 45.29 -13.48 Q 45.9 -13.88 46.69 -14.13 Q 47.47 -14.38 48.32 -14.38 L 48.32 -14.38 L 48.65 -14.38 Q 50.37 -14.38 51.47 -13.35 Q 52.58 -12.33 52.58 -10.57 L 52.58 -10.57 Q 52.58 -8.22 50.17 -6.05 L 50.17 -6.05 Q 49.82 -5.73 49.44 -5.39 Q 49.07 -5.05 48.67 -4.7 L 48.67 -4.7 Q 47.86 -4 47.34 -3.45 Q 46.81 -2.91 46.81 -2.4 L 46.81 -2.4 Q 46.81 -1.93 48.67 -1.93 L 48.67 -1.93 Q 49.19 -1.93 49.66 -1.95 Q 50.12 -1.98 50.55 -2.03 L 50.55 -2.03 L 51.37 -2.15 Q 51.79 -2.25 52.1 -2.25 L 52.1 -2.25 Q 52.91 -2.25 52.89 -1.45 L 52.89 -1.45 Q 52.89 -0.65 52.25 -0.35 L 52.25 -0.35 Q 51.62 -0.05 49.84 -0.05 L 49.84 -0.05 L 47.5 -0.05 Q 44.65 -0.05 44.27 -0.22 L 44.27 -0.22 Q 43.82 -0.37 43.82 -1.22 L 43.82 -1.22 Q 43.82 -2.05 44.66 -3.1 Q 45.5 -4.15 47.07 -5.58 L 47.07 -5.58 Q 48.62 -7.01 49.42 -8.08 Q 50.22 -9.16 50.22 -10.23 Z M 60.39 -14.43 L 60.39 -14.43 L 61.04 -14.43 Q 61.94 -14.43 62.89 -13.93 L 62.89 -13.93 Q 65.77 -12.4 65.76 -7.32 L 65.76 -7.32 L 65.76 -7.1 Q 65.76 -5.86 65.48 -4.55 Q 65.21 -3.25 64.59 -2.19 Q 63.96 -1.12 62.95 -0.45 Q 61.94 0.22 60.44 0.22 L 60.44 0.22 L 60.01 0.22 Q 59.03 0.22 58.17 -0.24 L 58.17 -0.24 Q 57.24 -0.74 56.69 -1.53 Q 56.14 -2.32 55.85 -3.2 Q 55.57 -4.08 55.47 -4.97 Q 55.38 -5.87 55.38 -6.6 L 55.38 -6.6 L 55.38 -7.28 Q 55.38 -8.9 55.81 -10.3 Q 56.24 -11.69 56.88 -12.55 L 56.88 -12.55 Q 57.53 -13.4 58.48 -13.92 Q 59.44 -14.43 60.39 -14.43 Z M 57.53 -7.37 L 57.53 -7.37 L 57.53 -6.37 Q 57.53 -5.32 57.71 -4.4 Q 57.89 -3.48 58.25 -2.79 Q 58.61 -2.1 59.12 -1.7 Q 59.63 -1.29 60.31 -1.29 L 60.31 -1.29 L 60.46 -1.29 Q 61.36 -1.29 61.93 -1.91 Q 62.49 -2.53 62.81 -3.4 Q 63.13 -4.27 63.25 -5.22 Q 63.37 -6.18 63.37 -6.82 L 63.37 -6.82 L 63.37 -7.68 Q 63.37 -10.08 62.65 -11.49 Q 61.94 -12.9 60.66 -12.9 L 60.66 -12.9 L 60.51 -12.9 Q 59.61 -12.9 59.02 -12.29 Q 58.44 -11.67 58.11 -10.8 Q 57.79 -9.92 57.66 -8.98 Q 57.53 -8.04 57.53 -7.37 Z M 74.78 -10.23 L 74.78 -10.23 Q 74.78 -12.61 72.46 -12.6 L 72.46 -12.6 Q 71.56 -12.6 70.63 -11.83 L 70.63 -11.83 Q 69.36 -10.71 69.1 -10.71 L 69.1 -10.71 Q 68.53 -10.71 68.53 -11.62 L 68.53 -11.62 Q 68.53 -12.1 68.89 -12.59 Q 69.25 -13.07 69.85 -13.48 Q 70.46 -13.88 71.25 -14.13 Q 72.03 -14.38 72.88 -14.38 L 72.88 -14.38 L 73.21 -14.38 Q 74.93 -14.38 76.03 -13.35 Q 77.14 -12.33 77.14 -10.57 L 77.14 -10.57 Q 77.14 -8.22 74.73 -6.05 L 74.73 -6.05 Q 74.38 -5.73 74.01 -5.39 Q 73.63 -5.05 73.23 -4.7 L 73.23 -4.7 Q 72.42 -4 71.9 -3.45 Q 71.37 -2.91 71.37 -2.4 L 71.37 -2.4 Q 71.37 -1.93 73.23 -1.93 L 73.23 -1.93 Q 73.75 -1.93 74.22 -1.95 Q 74.68 -1.98 75.11 -2.03 L 75.11 -2.03 L 75.93 -2.15 Q 76.35 -2.25 76.66 -2.25 L 76.66 -2.25 Q 77.47 -2.25 77.45 -1.45 L 77.45 -1.45 Q 77.45 -0.65 76.81 -0.35 L 76.81 -0.35 Q 76.18 -0.05 74.4 -0.05 L 74.4 -0.05 L 72.06 -0.05 Q 69.21 -0.05 68.84 -0.22 L 68.84 -0.22 Q 68.38 -0.37 68.38 -1.22 L 68.38 -1.22 Q 68.38 -2.05 69.22 -3.1 Q 70.06 -4.15 71.63 -5.58 L 71.63 -5.58 Q 73.18 -7.01 73.98 -8.08 Q 74.78 -9.16 74.78 -10.23 Z M 80.52 -11.95 L 80.52 -11.95 L 80.52 -12.07 Q 80.52 -12.35 80.98 -12.73 Q 81.45 -13.1 82.06 -13.42 Q 82.67 -13.75 83.26 -13.98 Q 83.85 -14.22 84.09 -14.22 L 84.09 -14.22 L 84.24 -14.22 Q 84.79 -14.22 84.97 -13.85 L 84.97 -13.85 Q 85.14 -13.5 85.14 -12.28 L 85.14 -12.28 L 85.12 -11.65 Q 85.1 -11.47 85.1 -11.33 L 85.1 -11.33 Q 85.1 -11.28 85.1 -11.23 L 85.1 -11.23 L 85.02 -7.75 L 85.02 -7.3 L 85 -6.42 L 85 -5.22 Q 85 -4.75 85 -4.4 Q 85 -4.05 85.06 -3.75 Q 85.12 -3.45 85.25 -3.15 Q 85.38 -2.84 85.6 -2.48 L 85.6 -2.48 Q 86.05 -1.78 86.05 -1.2 L 86.05 -1.2 Q 86.05 -0.65 85.46 -0.32 Q 84.88 0 83.95 0 L 83.95 0 L 83.72 0 Q 83.41 0 83.03 -0.07 Q 82.64 -0.15 82.28 -0.3 Q 81.92 -0.45 81.67 -0.71 Q 81.42 -0.98 81.42 -1.35 L 81.42 -1.35 Q 81.42 -1.83 81.92 -2.53 L 81.92 -2.53 Q 82.4 -3.15 82.57 -3.77 L 82.57 -3.77 Q 82.71 -4.37 82.73 -7.13 L 82.73 -7.13 Q 82.73 -9.8 82.4 -10.64 L 82.4 -10.64 Q 82.18 -11.17 81.57 -11.35 L 81.57 -11.35 Q 80.52 -11.65 80.52 -11.95 Z" stroke-linecap="round" />
</g>
</svg>